<?xml version="1.0" encoding="UTF-8" standalone="no"?>
<svg
   xmlns:dc="http://purl.org/dc/elements/1.1/"
   xmlns:cc="http://creativecommons.org/ns#"
   xmlns:rdf="http://www.w3.org/1999/02/22-rdf-syntax-ns#"
   xmlns:svg="http://www.w3.org/2000/svg"
   xmlns="http://www.w3.org/2000/svg"
   version="1.1"
   width="128"
   height="128"
   id="svg4462">
  <defs
     id="defs13" />
  <metadata
     id="metadata4467">
    <rdf:RDF>
      <cc:Work
         rdf:about="">
        <dc:format>image/svg+xml</dc:format>
        <dc:type
           rdf:resource="http://purl.org/dc/dcmitype/StillImage" />
        <dc:title></dc:title>
      </cc:Work>
    </rdf:RDF>
  </metadata>
  <g
     transform="matrix(1.4898373,0,0,1.4898373,-364.77011,-780.91318)"
     id="layer1">
    <g
       style="font-style:normal;font-weight:normal;font-family:Sans"
       transform="matrix(1.2198981,0,0,1.2198981,236.77641,535.89012)"
       font-weight="normal"
       font-style="normal"
       id="g4407">
      <g
         line-height="125%"
         font-size="40.78278732px"
         transform="matrix(0.96867486,0,1.0866425e-4,1.0323381,0,0)"
         style="font-size:40.78278732px;line-height:125%;letter-spacing:0px;word-spacing:0px;fill:#5eaeff"
         id="text4409">
        <path
           style="fill:#5eaeff"
           d="m 54.754,10.198 h 14.995 c 3.2658,2.9e-5 5.7085,0.77665 7.3282,2.3299 1.6329,1.5533 2.4493,3.7637 2.4494,6.6312 -2.8e-5,2.9472 -0.8895,5.2505 -2.6684,6.91 -1.7657,1.6595 -4.4673,2.4892 -8.1048,2.4892 h -4.9385 v 10.833 h -9.0606 v -29.193 m 9.0606,12.446 h 2.2104 c 1.7391,1.7e-5 2.9605,-0.29868 3.6641,-0.89611 0.70359,-0.61066 1.0554,-1.3873 1.0554,-2.3299 -1.9e-5,-0.916 -0.30536,-1.6926 -0.91602,-2.3299 -0.6107,-0.63721 -1.759,-0.95582 -3.445,-0.95585 h -2.5688 v 6.5117"
           id="path4441" />
      </g>
      <g
         line-height="100%"
         font-size="40.31949997px"
         transform="matrix(0.95767081,0,0.00216816,1.0442001,0,0)"
         style="font-size:40.31949997px;line-height:100%;letter-spacing:0px;word-spacing:0px;fill:#0065ff"
         id="text4413">
        <path
           style="fill:#0065ff"
           d="m 6.8785,10.082 h 13.25 c 2.6118,2.9e-5 4.7184,0.3544 6.3196,1.0631 1.6143,0.70877 2.9465,1.7259 3.9965,3.0515 1.05,1.3256 1.8112,2.8678 2.2837,4.6265 0.47246,1.7587 0.70871,3.6225 0.70874,5.5912 -3e-5,3.0843 -0.3544,5.4796 -1.0631,7.1858 -0.69564,1.6931 -1.6669,3.1172 -2.9137,4.2721 -1.2469,1.1419 -2.5856,1.9031 -4.0162,2.2837 -1.9556,0.52499 -3.7275,0.78749 -5.3156,0.78749 h -13.25 v -28.862 m 8.9183,6.5362 v 15.769 h 2.1853 c 1.8637,6e-6 3.1893,-0.20343 3.9768,-0.6103 0.78747,-0.41999 1.4043,-1.1419 1.8506,-2.1656 0.44622,-1.0369 0.66935,-2.7103 0.66937,-5.0202 -2e-5,-3.0581 -0.49876,-5.1515 -1.4962,-6.2802 -0.99751,-1.1287 -2.6512,-1.6931 -4.9612,-1.6931 h -2.2247"
           id="path4444" />
      </g>
    </g>
    <path
       style="fill:#0c86ff"
       d="m 267.97,574.97 12.722,-0.85488 c 0.20857,2.2164 0.71772,3.905 1.5274,5.066 1.3184,1.8786 3.2542,2.818 5.8073,2.8179 1.9049,10e-6 3.3822,-0.47493 4.4319,-1.4248 1.0699,-0.97097 1.6238,-2.0897 1.6618,-3.3562 0.036,-1.2032 -0.42275,-2.2797 -1.3762,-3.2296 -0.95353,-0.94985 -3.2048,-1.8469 -6.7537,-2.6913 -5.81,-1.4142 -9.927,-3.2928 -12.351,-5.6359 -2.4436,-2.343 -3.6111,-5.3298 -3.5024,-8.9604 0.0714,-2.3852 0.77697,-4.6332 2.1167,-6.7441 1.36,-2.1319 3.3443,-3.7994 5.953,-5.0026 2.629,-1.2242 6.1921,-1.8364 10.689,-1.8364 5.5185,5e-5 9.688,1.1082 12.509,3.3245 2.8408,2.1953 4.4641,5.6992 4.8699,10.512 l -12.602,0.79156 c -0.27133,-2.0897 -0.93282,-3.6095 -1.9845,-4.5594 -1.0321,-0.94983 -2.4908,-1.4248 -4.3761,-1.4248 -1.5515,4e-5 -2.7307,0.35888 -3.5378,1.0765 -0.80642,0.69661 -1.2248,1.5515 -1.2551,2.5646 -0.0221,0.73882 0.28199,1.4037 0.9124,1.9947 0.61009,0.61217 2.0856,1.1821 4.4264,1.7098 5.7922,1.351 9.9244,2.723 12.396,4.1161 2.4923,1.3721 4.2773,3.0818 5.3551,5.1293 1.0974,2.0475 1.6081,4.3378 1.5323,6.8707 -0.0891,2.9763 -0.93721,5.7203 -2.5442,8.2322 -1.6071,2.5119 -3.8049,4.4222 -6.5935,5.7309 -2.788,1.2876 -6.2735,1.9314 -10.457,1.9314 -7.3449,0 -12.386,-1.5198 -15.123,-4.5594 -2.737,-3.0396 -4.2219,-6.9024 -4.4547,-11.588"
       id="path4438" />
  </g>
</svg>
