<?xml version="1.0" encoding="UTF-8" standalone="no"?>
<svg
   xmlns:dc="http://purl.org/dc/elements/1.1/"
   xmlns:cc="http://creativecommons.org/ns#"
   xmlns:rdf="http://www.w3.org/1999/02/22-rdf-syntax-ns#"
   xmlns:svg="http://www.w3.org/2000/svg"
   xmlns="http://www.w3.org/2000/svg"
   xmlns:sodipodi="http://sodipodi.sourceforge.net/DTD/sodipodi-0.dtd"
   xmlns:inkscape="http://www.inkscape.org/namespaces/inkscape"
   version="1.1"
   width="32"
   height="32"
   viewBox="0 0 32 32"
   enable-background="new 0 0 76.00 76.00"
   xml:space="preserve"
   id="svg2"
   inkscape:version="0.47 r22583"
   sodipodi:docname="icon-restaurar.svg"
   inkscape:export-filename="/var/www/siga_optimizado/modulo_asl/asl_inscribir/images/icon-restaurar.png"
   inkscape:export-xdpi="90"
   inkscape:export-ydpi="90"><metadata
   id="metadata10"><rdf:RDF><cc:Work
       rdf:about=""><dc:format>image/svg+xml</dc:format><dc:type
         rdf:resource="http://purl.org/dc/dcmitype/StillImage" /><dc:title></dc:title></cc:Work></rdf:RDF></metadata><defs
   id="defs8"><inkscape:perspective
     sodipodi:type="inkscape:persp3d"
     inkscape:vp_x="0 : 38 : 1"
     inkscape:vp_y="0 : 1000 : 0"
     inkscape:vp_z="76 : 38 : 1"
     inkscape:persp3d-origin="38 : 25.333333 : 1"
     id="perspective12" /></defs><sodipodi:namedview
   pagecolor="#ffffff"
   bordercolor="#666666"
   borderopacity="1"
   objecttolerance="10"
   gridtolerance="10"
   guidetolerance="10"
   inkscape:pageopacity="0"
   inkscape:pageshadow="2"
   inkscape:window-width="1280"
   inkscape:window-height="943"
   id="namedview6"
   showgrid="false"
   inkscape:zoom="4.6148021"
   inkscape:cx="40.154182"
   inkscape:cy="31.986241"
   inkscape:window-x="0"
   inkscape:window-y="25"
   inkscape:window-maximized="1"
   inkscape:current-layer="svg2" />
	<path
   d="m 18.979568,12.739547 -8.156015,0 4.531138,4.531081 -5.305188,0 -6.4757043,-6.249167 6.4757043,-6.43793 5.305188,0 -4.531138,4.5310809 8.156015,0 c 5.004932,0 9.062278,4.0573471 9.062278,9.0622781 0,5.004932 -4.057346,9.062221 -9.062278,9.062221 l -2.718672,0 0,-3.624877 2.718672,0 c 3.002959,0 5.437344,-2.434385 5.437344,-5.437344 0,-3.002958 -2.434385,-5.437343 -5.437344,-5.437343 z m -5.437343,10.874687 0,3.624877 -3.6248774,0 0,-3.624877 3.6248774,0 z"
   id="path4"
   style="fill:#000000;fill-opacity:1;stroke-width:0.2;stroke-linejoin:round" />
</svg>