<?xml version="1.0" encoding="UTF-8" standalone="no"?>
<!-- Created with Inkscape (http://www.inkscape.org/) -->

<svg
   xmlns:dc="http://purl.org/dc/elements/1.1/"
   xmlns:cc="http://creativecommons.org/ns#"
   xmlns:rdf="http://www.w3.org/1999/02/22-rdf-syntax-ns#"
   xmlns:svg="http://www.w3.org/2000/svg"
   xmlns="http://www.w3.org/2000/svg"
   xmlns:sodipodi="http://sodipodi.sourceforge.net/DTD/sodipodi-0.dtd"
   xmlns:inkscape="http://www.inkscape.org/namespaces/inkscape"
   width="32"
   height="32"
   id="svg2964"
   version="1.1"
   inkscape:version="0.47 r22583"
   sodipodi:docname="icon-removepersona.svg"
   inkscape:export-filename="/var/www/siga_optimizado/modulo_asl/asl_inscribir/images/icon-removepersona.png"
   inkscape:export-xdpi="90"
   inkscape:export-ydpi="90">
  <defs
     id="defs2966">
    <linearGradient
       id="linearGradient3819">
      <stop
         style="stop-color:#a20020;stop-opacity:1;"
         offset="0"
         id="stop3821" />
      <stop
         id="stop3827"
         offset="1"
         style="stop-color:#4a1500;stop-opacity:1;" />
    </linearGradient>
    <inkscape:perspective
       sodipodi:type="inkscape:persp3d"
       inkscape:vp_x="0 : 526.18109 : 1"
       inkscape:vp_y="0 : 1000 : 0"
       inkscape:vp_z="744.09448 : 526.18109 : 1"
       inkscape:persp3d-origin="372.04724 : 350.78739 : 1"
       id="perspective2972" />
    <inkscape:perspective
       id="perspective2955"
       inkscape:persp3d-origin="0.5 : 0.33333333 : 1"
       inkscape:vp_z="1 : 0.5 : 1"
       inkscape:vp_y="0 : 1000 : 0"
       inkscape:vp_x="0 : 0.5 : 1"
       sodipodi:type="inkscape:persp3d" />
    <filter
       inkscape:collect="always"
       id="filter3798">
      <feGaussianBlur
         inkscape:collect="always"
         stdDeviation="1.2074646"
         id="feGaussianBlur3800" />
    </filter>
  </defs>
  <sodipodi:namedview
     id="base"
     pagecolor="#ffffff"
     bordercolor="#666666"
     borderopacity="1.0"
     inkscape:pageopacity="0"
     inkscape:pageshadow="2"
     inkscape:zoom="2.8"
     inkscape:cx="-14.689379"
     inkscape:cy="-33.798729"
     inkscape:document-units="px"
     inkscape:current-layer="layer1"
     showgrid="false"
     inkscape:window-width="1280"
     inkscape:window-height="943"
     inkscape:window-x="0"
     inkscape:window-y="25"
     inkscape:window-maximized="1" />
  <metadata
     id="metadata2969">
    <rdf:RDF>
      <cc:Work
         rdf:about="">
        <dc:format>image/svg+xml</dc:format>
        <dc:type
           rdf:resource="http://purl.org/dc/dcmitype/StillImage" />
        <dc:title></dc:title>
      </cc:Work>
    </rdf:RDF>
  </metadata>
  <g
     inkscape:label="Capa 1"
     inkscape:groupmode="layer"
     id="layer1"
     transform="translate(0,-1020.3622)">
    <g
       id="g2991"
       transform="matrix(0.70672991,0,0,0.70672991,1.9539702,305.58251)"
       style="fill:#1a1a1a">
      <path
         style="fill:#1a1a1a;fill-opacity:1;stroke:none"
         id="path3754"
         inkscape:connector-curvature="0"
         d="m 13.357143,1028.8264 c 0.460215,2.1767 0.717092,3.8233 0.34375,6 -2.910693,2.4149 -10.3549082,3.5 -10.3437502,6 l -1,6.5 c 0,2.4853 6.939586,4.5 15.5000002,4.5 8.560414,0 15.5,-2.0147 15.5,-4.5 l -1,-6.5 c -0.01187,-2.1397 -7.5,-3.5 -10.375,-6 -0.245574,-2.0203 -0.05009,-3.9797 0.375,-6 l -9,0 z" />
      <path
         style="fill:#1a1a1a;fill-opacity:1;stroke:none"
         id="path3765"
         d="m 17.922781,1046.1868 c -3.272932,0.1052 -6.489593,1.2047 -9.9117882,2.8242 a 1.0890997,1.0890997 0 0 0 -0.597423,1.2491 l 0.543111,2.1996 a 1.0890997,1.0890997 0 0 0 0.67889,0.7332 c 0.140563,0.054 0.239342,0.1598 0.624579,0.2716 2.0293242,0.5892 5.1338892,1.0048 8.6083202,1.0048 3.474432,0 6.578996,-0.4156 8.608321,-1.0048 0.385236,-0.1118 0.484014,-0.2172 0.624578,-0.2716 a 1.0890997,1.0890997 0 0 0 0.67889,-0.706 l 0.570267,-2.0095 a 1.0890997,1.0890997 0 0 0 -0.461645,-1.1949 c -3.409788,-2.2714 -6.693168,-3.2009 -9.9661,-3.0957 z" />
      <rect
         style="fill:#1a1a1a;fill-opacity:1;stroke:none"
         id="rect3767"
         transform="matrix(0.9205234,-0.39068744,0.39068744,0.9205234,0,0)"
         y="945.13922"
         x="-391.14139"
         ry="3"
         rx="3"
         height="5.5558391"
         width="2.7779195" />
      <rect
         style="fill:#1a1a1a;fill-opacity:1;stroke:none"
         id="rect3769"
         transform="matrix(-0.9205234,-0.39068744,-0.39068744,0.9205234,0,0)"
         y="931.22253"
         x="-423.93146"
         ry="3"
         rx="3"
         height="5.5558391"
         width="2.7779195" />
      <path
         style="fill:#1a1a1a;fill-opacity:1;stroke:none"
         id="path2976"
         inkscape:connector-curvature="0"
         d="m 17.857143,1013.8264 c -4.142136,0 -7.5,3.134 -7.5,7 0.03246,1.4307 0.154571,3.1304 1,7 0.5,1.5 3.95976,5.5 4,6 0.96967,0.5 4.5,0.5 5.5,0 0,-0.5 3,-4.5 3.5,-6 0.951375,-4.0217 0.948972,-5.5 1,-7 0,-3.866 -3.357864,-7 -7.5,-7 z" />
    </g>
    <g
       id="g3806"
       transform="matrix(1.2346938,0,0,1.2346938,28.298788,-243.44307)"
       style="stroke:none;fill:#ce3131;fill-opacity:1">
      <g
         id="g3812"
         transform="matrix(0.92402986,0,0,0.92402986,4.1967739,83.120831)"
         style="stroke:none;fill:#ce3131;fill-opacity:1">
        <path
           style="fill:#ce3131;fill-opacity:1;fill-rule:nonzero;stroke:none;stroke-width:0.26295170000000001;stroke-miterlimit:4;stroke-opacity:1;stroke-dasharray:none"
           d="m -6.9991865,1030.7059 -2.9192549,2.8521 -2.8520426,-2.9193 -2.997651,2.9287 2.852042,2.9192 -2.938854,2.8712 2.928634,2.9977 2.9388537,-2.8712 2.8711898,2.9388 2.9976511,-2.9286 -2.8711898,-2.9389 2.9192549,-2.852 -2.9286332,-2.9977 z"
           id="rect3802" />
      </g>
    </g>
  </g>
</svg>
