<?xml version="1.0" encoding="UTF-8" standalone="no"?>
<svg
   xmlns:dc="http://purl.org/dc/elements/1.1/"
   xmlns:cc="http://creativecommons.org/ns#"
   xmlns:rdf="http://www.w3.org/1999/02/22-rdf-syntax-ns#"
   xmlns:svg="http://www.w3.org/2000/svg"
   xmlns="http://www.w3.org/2000/svg"
   xmlns:xlink="http://www.w3.org/1999/xlink"
   xmlns:sodipodi="http://sodipodi.sourceforge.net/DTD/sodipodi-0.dtd"
   xmlns:inkscape="http://www.inkscape.org/namespaces/inkscape"
   id="svg2"
   viewBox="0 0 590 320"
   height="100%"
   width="100%"
   version="1.1"
   inkscape:version="0.48.3.1 r9886"
   sodipodi:docname="login-bg.svg"
   inkscape:export-filename="/home/cpinto/Desktop/mnt/siga/siga-ng/image/login-bg.png"
   inkscape:export-xdpi="90"
   inkscape:export-ydpi="90">
  <sodipodi:namedview
     pagecolor="#ffffff"
     bordercolor="#666666"
     borderopacity="1"
     objecttolerance="10"
     gridtolerance="10"
     guidetolerance="10"
     inkscape:pageopacity="1"
     inkscape:pageshadow="2"
     inkscape:window-width="1280"
     inkscape:window-height="946"
     id="namedview134"
     showgrid="false"
     inkscape:zoom="1.138976"
     inkscape:cx="266.41728"
     inkscape:cy="215.7414"
     inkscape:window-x="0"
     inkscape:window-y="24"
     inkscape:window-maximized="1"
     inkscape:current-layer="layer1" />
  <defs
     id="defs4">
    <inkscape:perspective
       sodipodi:type="inkscape:persp3d"
       inkscape:vp_x="0 : 55.66253 : 1"
       inkscape:vp_y="0 : 1000 : 0"
       inkscape:vp_z="1914 : 55.66253 : 1"
       inkscape:persp3d-origin="957 : 37.108353 : 1"
       id="perspective136" />
    <inkscape:perspective
       id="perspective3235"
       inkscape:persp3d-origin="0.5 : 0.33333333 : 1"
       inkscape:vp_z="1 : 0.5 : 1"
       inkscape:vp_y="0 : 1000 : 0"
       inkscape:vp_x="0 : 0.5 : 1"
       sodipodi:type="inkscape:persp3d" />
    <inkscape:perspective
       id="perspective3314"
       inkscape:persp3d-origin="0.5 : 0.33333333 : 1"
       inkscape:vp_z="1 : 0.5 : 1"
       inkscape:vp_y="0 : 1000 : 0"
       inkscape:vp_x="0 : 0.5 : 1"
       sodipodi:type="inkscape:persp3d" />
    <filter
       color-interpolation-filters="sRGB"
       height="1.8662825"
       y="-0.43314123"
       width="1.8197989"
       x="-0.4098995"
       id="filter3928"
       inkscape:collect="always">
      <feGaussianBlur
         id="feGaussianBlur3930"
         stdDeviation="12.504375"
         inkscape:collect="always" />
    </filter>
    <linearGradient
       gradientTransform="matrix(1.5319325,0,0,1.7070509,-51.521189,-710.0386)"
       gradientUnits="userSpaceOnUse"
       y2="1149.505"
       x2="331.42856"
       y1="152.36218"
       x1="331.42856"
       id="linearGradient2993"
       xlink:href="#linearGradient2987"
       inkscape:collect="always" />
    <linearGradient
       id="linearGradient2987">
      <stop
         id="stop2989"
         offset="0"
         style="stop-color:#333333;stop-opacity:1;" />
      <stop
         style="stop-color:#333333;stop-opacity:0.73780489;"
         offset="0.19627506"
         id="stop2995" />
      <stop
         id="stop2997"
         offset="0.61318052"
         style="stop-color:#333333;stop-opacity:0.76219511;" />
      <stop
         id="stop2991"
         offset="1"
         style="stop-color:#333333;stop-opacity:1;" />
    </linearGradient>
    <inkscape:perspective
       id="perspective3542"
       inkscape:persp3d-origin="526.18109 : 248.03149 : 1"
       inkscape:vp_z="1052.3622 : 372.04724 : 1"
       inkscape:vp_y="0 : 1000 : 0"
       inkscape:vp_x="0 : 372.04724 : 1"
       sodipodi:type="inkscape:persp3d" />
    <filter
       inkscape:collect="always"
       id="filter4450"
       color-interpolation-filters="sRGB">
      <feGaussianBlur
         inkscape:collect="always"
         stdDeviation="2.9920502e-06"
         id="feGaussianBlur4452" />
    </filter>
  </defs>
  <metadata
     id="metadata7">
    <rdf:RDF>
      <cc:Work
         rdf:about="">
        <dc:format>image/svg+xml</dc:format>
        <dc:type
           rdf:resource="http://purl.org/dc/dcmitype/StillImage" />
        <dc:title></dc:title>
      </cc:Work>
    </rdf:RDF>
  </metadata>
  <g
     id="layer1"
     transform="matrix(0.99595491,0,0,0.91428571,524.40642,-92.47637)">
    <g
       id="g3249"
       transform="matrix(1.0678818,0,0,1.0678818,48.356446,-2.8301402)">
      <g
         style="font-size:26px;font-style:normal;font-weight:bold;fill:#4d4d4d;font-family:arial"
         font-style="normal"
         font-weight="bold"
         transform="matrix(0.44368321,0,0,0.47997206,-910.44162,83.292543)"
         font-size="26px"
         id="flowRoot2915">
        <path
           style="fill:#666666"
           d="m 1028.6,107.85 0,-3.3594 12.129,-0.0195 0,10.625 c -1.862,1.4844 -3.7825,2.6042 -5.7617,3.3594 -1.9792,0.74218 -4.0104,1.1133 -6.0937,1.1133 -2.8126,0 -5.3711,-0.59896 -7.6758,-1.7969 -2.2917,-1.2109 -4.0235,-2.9557 -5.1953,-5.2344 -1.1719,-2.2786 -1.7578,-4.8242 -1.7578,-7.6367 0,-2.7864 0.5794,-5.3841 1.7382,-7.793 1.1719,-2.4219 2.8516,-4.2187 5.0391,-5.3906 2.1875,-1.1718 4.707,-1.7578 7.5586,-1.7578 2.0703,2.9e-5 3.9388,0.33857 5.6055,1.0156 1.6796,0.66409 2.9947,1.5951 3.9453,2.793 0.9505,1.1979 1.6731,2.7604 2.1679,4.6875 l -3.4179,0.9375 c -0.4297,-1.4583 -0.9636,-2.6041 -1.6016,-3.4375 -0.638,-0.83331 -1.5495,-1.4974 -2.7344,-1.9922 -1.1849,-0.50779 -2.5,-0.76169 -3.9453,-0.76172 -1.7318,2.6e-5 -3.2292,0.26695 -4.4922,0.80078 -1.263,0.52086 -2.2851,1.211 -3.0664,2.0703 -0.7682,0.8594 -1.3672,1.8034 -1.7968,2.832 -0.7292,1.7709 -1.0938,3.6914 -1.0938,5.7617 0,2.5521 0.4362,4.6875 1.3086,6.4062 0.8854,1.7188 2.168,2.9948 3.8477,3.8281 1.6796,0.83334 3.4635,1.25 5.3515,1.25 1.6406,0 3.2422,-0.3125 4.8047,-0.9375 1.5625,-0.63802 2.7474,-1.3151 3.5547,-2.0312 v -5.332 h -8.418"
           id="path3348"
           inkscape:connector-curvature="0" />
        <path
           style="fill:#666666"
           d="m 1044.6,108.71 c 0,-3.8411 1.0677,-6.6862 3.2032,-8.5352 1.7838,-1.5364 3.9583,-2.3047 6.5234,-2.3047 2.8515,2.1e-5 5.1823,0.93752 6.9922,2.8125 1.8099,1.862 2.7148,4.4401 2.7148,7.7344 0,2.6693 -0.4036,4.7722 -1.2109,6.3086 -0.7943,1.5234 -1.9597,2.7083 -3.4961,3.5547 -1.5235,0.84635 -3.1901,1.2695 -5,1.2695 -2.9037,0 -5.2539,-0.93099 -7.0508,-2.793 -1.7839,-1.862 -2.6758,-4.5443 -2.6758,-8.0469 m 3.6133,0 c 0,2.6563 0.5794,4.6484 1.7383,5.9766 1.1588,1.3151 2.6172,1.9726 4.375,1.9726 1.7448,0 3.1966,-0.66406 4.3555,-1.9922 1.1588,-1.3281 1.7382,-3.3528 1.7382,-6.0742 0,-2.5651 -0.5859,-4.5052 -1.7578,-5.8203 -1.1588,-1.3281 -2.6042,-1.9922 -4.3359,-1.9922 -1.7578,1e-5 -3.2162,0.65757 -4.375,1.9726 -1.1589,1.3151 -1.7383,3.3008 -1.7383,5.957"
           id="path3350"
           inkscape:connector-curvature="0" />
        <path
           style="fill:#666666"
           d="m 1071.4,119.08 -3.2617,0 0,-28.633 3.5156,0 0,10.215 c 1.4844,-1.862 3.3789,-2.7929 5.6836,-2.793 1.2761,2.1e-5 2.4805,0.26044 3.6133,0.78125 1.1458,0.50783 2.0833,1.2305 2.8125,2.168 0.7422,0.9245 1.3216,2.0443 1.7383,3.3594 0.4166,1.3151 0.625,2.7214 0.625,4.2188 0,3.5547 -0.8789,6.3021 -2.6367,8.2422 -1.7579,1.9401 -3.8672,2.9102 -6.3281,2.9102 -2.448,0 -4.3685,-1.0221 -5.7618,-3.0664 v 2.5977 m -0.039,-10.527 c 0,2.487 0.3385,4.2839 1.0156,5.3906 1.1068,1.8099 2.6042,2.7148 4.4922,2.7148 1.5364,0 2.8646,-0.66406 3.9844,-1.9922 1.1197,-1.3411 1.6796,-3.3333 1.6796,-5.9766 0,-2.7083 -0.5403,-4.707 -1.621,-5.9961 -1.0678,-1.289 -2.3633,-1.9336 -3.8868,-1.9336 -1.5364,2e-5 -2.8646,0.6706 -3.9843,2.0117 -1.1198,1.3281 -1.6797,3.2552 -1.6797,5.7812"
           id="path3352"
           inkscape:connector-curvature="0" />
        <path
           style="fill:#666666"
           d="m 1090.4,94.492 0,-4.043 3.5156,0 0,4.043 -3.5156,0 m 0,24.59 0,-20.742 3.5156,0 0,20.742 -3.5156,0"
           id="path3354"
           inkscape:connector-curvature="0" />
        <path
           style="fill:#666666"
           d="m 1113.5,112.4 3.6329,0.44922 c -0.573,2.1224 -1.6342,3.7695 -3.1836,4.9414 -1.5495,1.1719 -3.5287,1.7578 -5.9375,1.7578 -3.0339,0 -5.4428,-0.93099 -7.2266,-2.793 -1.7708,-1.875 -2.6563,-4.4987 -2.6563,-7.8711 0,-3.4896 0.8985,-6.1979 2.6954,-8.125 1.7968,-1.9271 4.1276,-2.8906 6.9921,-2.8906 2.7735,2.1e-5 5.0391,0.94403 6.7969,2.832 1.7578,1.88797 2.6367,4.5443 2.6367,7.9688 0,0.20834 -0.01,0.52084 -0.02,0.9375 h -15.469 c 0.1302,2.2786 0.7747,4.0234 1.9336,5.2344 1.1588,1.2109 2.6041,1.8164 4.3359,1.8164 1.289,0 2.3893,-0.33854 3.3008,-1.0156 0.9114,-0.67708 1.6341,-1.7578 2.1679,-3.2422 m -11.543,-5.6836 11.582,0 c -0.1563,-1.7448 -0.599,-3.0534 -1.3281,-3.9258 -1.1198,-1.3541 -2.5717,-2.0312 -4.3555,-2.0312 -1.6146,2e-5 -2.9753,0.54039 -4.082,1.6211 -1.0938,1.0807 -1.6992,2.526 -1.8164,4.3359"
           id="path3356"
           inkscape:connector-curvature="0" />
        <path
           style="fill:#666666"
           d="m 1121.6,119.08 0,-20.742 3.164,0 0,3.1445 c 0.8073,-1.4713 1.5495,-2.4414 2.2266,-2.9102 0.6901,-0.46873 1.4453,-0.7031 2.2656,-0.70312 1.1849,2.1e-5 2.3893,0.37762 3.6133,1.1328 l -1.2109,3.2617 c -0.8594,-0.50779 -1.7188,-0.7617 -2.5781,-0.76172 -0.7683,2e-5 -1.4584,0.23439 -2.0704,0.70313 -0.6119,0.45574 -1.0481,1.0938 -1.3086,1.9141 -0.3906,1.25 -0.5859,2.6172 -0.5859,4.1016 v 10.859 h -3.5"
           id="path3358"
           inkscape:connector-curvature="0" />
        <path
           style="fill:#666666"
           d="m 1134.9,119.08 0,-20.742 3.1641,0 0,2.9492 c 1.5234,-2.2786 3.7239,-3.4179 6.6015,-3.418 1.25,2.1e-5 2.3959,0.22788 3.4375,0.68359 1.0547,0.44273 1.8425,1.0287 2.3633,1.7578 0.5208,0.72918 0.8854,1.5951 1.0938,2.5976 0.1302,0.65106 0.1953,1.7904 0.1953,3.418 v 12.754 h -3.5156 v -12.617 c -10e-5,-1.4323 -0.1368,-2.5 -0.4102,-3.2031 -0.2734,-0.71612 -0.7617,-1.2825 -1.4648,-1.6992 -0.6902,-0.42967 -1.504,-0.64452 -2.4414,-0.64454 -1.4974,2e-5 -2.793,0.47528 -3.8868,1.4258 -1.0807,0.95053 -1.6211,2.7539 -1.6211,5.4102 v 11.328 h -3.6"
           id="path3360"
           inkscape:connector-curvature="0" />
        <path
           style="fill:#666666"
           d="m 1155.9,108.71 c -1e-4,-3.8411 1.0677,-6.6862 3.2031,-8.5352 1.7838,-1.5364 3.9583,-2.3047 6.5234,-2.3047 2.8516,2.1e-5 5.1823,0.93752 6.9922,2.8125 1.8099,1.862 2.7148,4.4401 2.7148,7.7344 0,2.6693 -0.4036,4.7722 -1.2109,6.3086 -0.7943,1.5234 -1.9596,2.7083 -3.4961,3.5547 -1.5234,0.84635 -3.1901,1.2695 -5,1.2695 -2.9036,0 -5.2539,-0.93099 -7.0508,-2.793 -1.7838,-1.862 -2.6758,-4.5443 -2.6757,-8.0469 m 3.6132,0 c 0,2.6563 0.5795,4.6484 1.7383,5.9766 1.1589,1.3151 2.6172,1.9726 4.375,1.9726 1.7448,0 3.1966,-0.66406 4.3555,-1.9922 1.1588,-1.3281 1.7382,-3.3528 1.7383,-6.0742 -10e-5,-2.5651 -0.586,-4.5052 -1.7578,-5.8203 -1.1589,-1.3281 -2.6042,-1.9922 -4.336,-1.9922 -1.7578,1e-5 -3.2161,0.65757 -4.375,1.9726 -1.1588,1.3151 -1.7383,3.3008 -1.7383,5.957"
           id="path3362"
           inkscape:connector-curvature="0" />
        <g
           transform="translate(-176.30637,33.630075)"
           id="g3200">
          <path
             id="path3364"
             d="m 1190.9,90.449 11.445,0 c 2.2656,2.8e-5 3.9518,0.09768 5.0586,0.29297 1.1198,0.18232 2.1159,0.57294 2.9883,1.1719 0.8854,0.59898 1.621,1.3998 2.207,2.4023 0.5859,0.98961 0.8789,2.1029 0.8789,3.3398 0,1.3412 -0.3646,2.5716 -1.0937,3.6914 -0.7162,1.1198 -1.6928,1.9596 -2.9297,2.5195 1.7447,0.50783 3.0859,1.3737 4.0234,2.5977 0.9375,1.224 1.4062,2.6628 1.4063,4.3164 -10e-5,1.3021 -0.3061,2.5716 -0.918,3.8086 -0.599,1.224 -1.4258,2.207 -2.4805,2.9492 -1.0417,0.72917 -2.3307,1.1784 -3.8672,1.3476 -0.9635,0.10417 -3.2877,0.16928 -6.9726,0.19532 h -9.7461 v -28.633 m 5.7812,4.7656 0,6.6211 3.7891,0 c 2.2526,2e-5 3.6523,-0.0325 4.1992,-0.0977 0.9896,-0.11717 1.7643,-0.45571 2.3242,-1.0156 0.5729,-0.5729 0.8594,-1.3216 0.8594,-2.2461 0,-0.8854 -0.2474,-1.6015 -0.7422,-2.1484 -0.4818,-0.55987 -1.2044,-0.89841 -2.1679,-1.0156 -0.573,-0.06508 -2.2201,-0.09763 -4.9414,-0.09766 h -3.3204 m 0,11.387 0,7.6562 5.3516,0 c 2.0833,0 3.4049,-0.0586 3.9648,-0.17578 0.8594,-0.15625 1.556,-0.53385 2.0899,-1.1328 0.5468,-0.61197 0.8203,-1.4258 0.8203,-2.4414 0,-0.85937 -0.2084,-1.5885 -0.625,-2.1875 -0.4167,-0.59895 -1.0222,-1.0352 -1.8164,-1.3086 -0.7813,-0.27342 -2.487,-0.41014 -5.1172,-0.41015 h -4.668"
             inkscape:connector-curvature="0" />
          <path
             id="path3366"
             d="m 1218.4,108.42 c 0,-1.8229 0.4492,-3.5872 1.3477,-5.293 0.8984,-1.7057 2.1679,-3.0078 3.8086,-3.9063 1.6536,-0.89842 3.496,-1.3476 5.5273,-1.3477 3.138,2.1e-5 5.7096,1.0222 7.7149,3.0664 2.0051,2.0313 3.0077,4.6029 3.0078,7.7148 -10e-5,3.138 -1.0157,5.7422 -3.0469,7.8125 -2.0183,2.0573 -4.5638,3.0859 -7.6367,3.0859 -1.9011,0 -3.7175,-0.42969 -5.4492,-1.2891 -1.7188,-0.85937 -3.0274,-2.1159 -3.9258,-3.7695 -0.8985,-1.6667 -1.3477,-3.6914 -1.3477,-6.0742 m 5.625,0.29297 c 0,2.0573 0.4883,3.6328 1.4649,4.7266 0.9765,1.0938 2.1809,1.6406 3.6132,1.6406 1.4323,1e-5 2.6302,-0.54687 3.5938,-1.6406 0.9765,-1.0938 1.4648,-2.6823 1.4648,-4.7656 0,-2.0312 -0.4883,-3.5937 -1.4648,-4.6875 -0.9636,-1.0937 -2.1615,-1.6406 -3.5938,-1.6406 -1.4323,1e-5 -2.6367,0.54689 -3.6132,1.6406 -0.9766,1.0938 -1.4649,2.6693 -1.4649,4.7266"
             inkscape:connector-curvature="0" />
          <path
             id="path3368"
             d="m 1244.2,119.08 0,-28.633 5.4883,0 0,28.633 -5.4883,0"
             inkscape:connector-curvature="0" />
          <path
             id="path3370"
             d="m 1255.3,95.527 0,-5.0781 5.4883,0 0,5.0781 -5.4883,0 m 0,23.555 0,-20.742 5.4883,0 0,20.742 -5.4883,0"
             inkscape:connector-curvature="0" />
          <path
             id="path3372"
             d="m 1272.1,119.08 -8.3594,-20.742 5.7617,0 3.9063,10.586 1.1328,3.5352 c 0.2995,-0.89843 0.4883,-1.4909 0.5664,-1.7773 0.1823,-0.58593 0.3776,-1.1719 0.5859,-1.7578 l 3.9454,-10.586 h 5.6445 l -8.2422,20.742 h -4.9"
             inkscape:connector-curvature="0" />
          <path
             id="path3374"
             d="m 1292.8,104.67 -4.9805,-0.89843 c 0.5599,-2.0052 1.5234,-3.4896 2.8906,-4.4531 1.3672,-0.96352 3.3985,-1.4453 6.0938,-1.4453 2.4479,2.1e-5 4.2708,0.29299 5.4687,0.87891 1.1979,0.57294 2.0378,1.3086 2.5196,2.207 0.4947,0.88543 0.7421,2.5195 0.7422,4.9023 l -0.059,6.4062 c -10e-5,1.8229 0.085,3.1706 0.2539,4.043 0.1822,0.85938 0.5143,1.7838 0.9961,2.7734 h -5.4297 c -0.1433,-0.36459 -0.3191,-0.90495 -0.5274,-1.6211 -0.091,-0.32552 -0.1562,-0.54036 -0.1953,-0.64453 -0.9375,0.91146 -1.9401,1.5951 -3.0078,2.0508 -1.0677,0.45573 -2.207,0.6836 -3.418,0.6836 -2.1354,0 -3.8216,-0.57943 -5.0586,-1.7383 -1.2239,-1.1589 -1.8359,-2.6237 -1.8359,-4.3945 0,-1.1719 0.28,-2.2135 0.8399,-3.125 0.5598,-0.92446 1.3411,-1.6276 2.3437,-2.1094 1.0156,-0.49478 2.474,-0.92447 4.375,-1.2891 2.5651,-0.48176 4.3424,-0.93098 5.332,-1.3477 v -0.54687 c 0,-1.0547 -0.2604,-1.8034 -0.7812,-2.2461 -0.5209,-0.45571 -1.5039,-0.68357 -2.9492,-0.68359 -0.9766,2e-5 -1.7383,0.19533 -2.2852,0.58594 -0.5469,0.37762 -0.9896,1.0482 -1.3281,2.0117 m 7.3437,4.4531 c -0.7031,0.23438 -1.8164,0.51433 -3.3398,0.83984 -1.5235,0.32553 -2.5196,0.64454 -2.9883,0.95703 -0.7161,0.50782 -1.0742,1.1524 -1.0742,1.9336 0,0.76823 0.2864,1.4323 0.8594,1.9922 0.5729,0.5599 1.302,0.83984 2.1875,0.83984 0.9895,0 1.9335,-0.32552 2.832,-0.97656 0.664,-0.49479 1.1002,-1.1003 1.3086,-1.8164 0.1432,-0.46874 0.2148,-1.3607 0.2148,-2.6758 v -1.0938"
             inkscape:connector-curvature="0" />
          <path
             id="path3376"
             d="m 1316.2,119.08 -5.4883,0 0,-20.742 5.0976,0 0,2.9492 c 0.8724,-1.3932 1.6537,-2.3112 2.3438,-2.7539 0.7031,-0.44269 1.4974,-0.66404 2.3828,-0.66406 1.25,2.1e-5 2.4544,0.34507 3.6133,1.0352 l -1.6992,4.7852 c -0.9245,-0.59894 -1.7839,-0.89842 -2.5782,-0.89844 -0.7682,2e-5 -1.4193,0.21486 -1.9531,0.64454 -0.5339,0.41668 -0.957,1.1784 -1.2695,2.2852 -0.2995,1.1068 -0.4493,3.4245 -0.4492,6.9531 v 6.4062"
             inkscape:connector-curvature="0" />
          <path
             id="path3378"
             d="m 1326.5,95.527 0,-5.0781 5.4883,0 0,5.0781 -5.4883,0 m 0,23.555 0,-20.742 5.4883,0 0,20.742 -5.4883,0"
             inkscape:connector-curvature="0" />
          <path
             id="path3380"
             d="m 1341.7,104.67 -4.9804,-0.89843 c 0.5599,-2.0052 1.5234,-3.4896 2.8906,-4.4531 1.3672,-0.96352 3.3984,-1.4453 6.0937,-1.4453 2.4479,2.1e-5 4.2709,0.29299 5.4688,0.87891 1.1979,0.57294 2.0377,1.3086 2.5195,2.207 0.4948,0.88543 0.7422,2.5195 0.7422,4.9023 l -0.059,6.4062 c 0,1.8229 0.085,3.1706 0.2539,4.043 0.1823,0.85938 0.5143,1.7838 0.9961,2.7734 h -5.4297 c -0.1432,-0.36459 -0.319,-0.90495 -0.5273,-1.6211 -0.091,-0.32552 -0.1563,-0.54036 -0.1953,-0.64453 -0.9375,0.91146 -1.9401,1.5951 -3.0078,2.0508 -1.0678,0.45573 -2.2071,0.6836 -3.418,0.6836 -2.1354,0 -3.8216,-0.57943 -5.0586,-1.7383 -1.224,-1.1589 -1.8359,-2.6237 -1.8359,-4.3945 0,-1.1719 0.2799,-2.2135 0.8398,-3.125 0.5599,-0.92446 1.3411,-1.6276 2.3438,-2.1094 1.0156,-0.49478 2.4739,-0.92447 4.375,-1.2891 2.565,-0.48176 4.3424,-0.93098 5.332,-1.3477 v -0.54687 c 0,-1.0547 -0.2604,-1.8034 -0.7813,-2.2461 -0.5208,-0.45571 -1.5039,-0.68357 -2.9492,-0.68359 -0.9766,2e-5 -1.7383,0.19533 -2.2851,0.58594 -0.5469,0.37762 -0.9896,1.0482 -1.3282,2.0117 m 7.3438,4.4531 c -0.7032,0.23438 -1.8164,0.51433 -3.3399,0.83984 -1.5234,0.32553 -2.5195,0.64454 -2.9882,0.95703 -0.7162,0.50782 -1.0743,1.1524 -1.0743,1.9336 0,0.76823 0.2865,1.4323 0.8594,1.9922 0.5729,0.5599 1.3021,0.83984 2.1875,0.83984 0.9896,0 1.9336,-0.32552 2.832,-0.97656 0.6641,-0.49479 1.1003,-1.1003 1.3086,-1.8164 0.1433,-0.46874 0.2149,-1.3607 0.2149,-2.6758 v -1.0938"
             inkscape:connector-curvature="0" />
          <path
             id="path3382"
             d="m 1378.7,119.08 -5.4883,0 0,-10.586 c 0,-2.2396 -0.1172,-3.6849 -0.3516,-4.3359 -0.2344,-0.66404 -0.6185,-1.1784 -1.1523,-1.543 -0.5209,-0.36456 -1.1524,-0.54685 -1.8945,-0.54687 -0.9506,2e-5 -1.8034,0.26043 -2.5586,0.78125 -0.7552,0.52085 -1.2761,1.211 -1.5625,2.0703 -0.2735,0.85939 -0.4102,2.4479 -0.4102,4.7656 v 9.3945 h -5.4883 v -20.742 h 5.0977 v 3.0469 c 1.8099,-2.3437 4.0885,-3.5156 6.8359,-3.5156 1.2109,2.1e-5 2.3177,0.22138 3.3203,0.66406 1.0026,0.42971 1.7578,0.98309 2.2657,1.6602 0.5208,0.6771 0.8788,1.4453 1.0742,2.3047 0.2083,0.85939 0.3125,2.0898 0.3125,3.6914 v 12.891"
             inkscape:connector-curvature="0" />
          <path
             id="path3384"
             d="m 1383.1,108.42 c 0,-1.8229 0.4492,-3.5872 1.3476,-5.293 0.8985,-1.7057 2.168,-3.0078 3.8086,-3.9063 1.6537,-0.89842 3.4961,-1.3476 5.5274,-1.3477 3.138,2.1e-5 5.7096,1.0222 7.7148,3.0664 2.0052,2.0313 3.0078,4.6029 3.0078,7.7148 0,3.138 -1.0156,5.7422 -3.0468,7.8125 -2.0183,2.0573 -4.5639,3.0859 -7.6368,3.0859 -1.901,0 -3.7174,-0.42969 -5.4492,-1.2891 -1.7187,-0.85937 -3.0273,-2.1159 -3.9258,-3.7695 -0.8984,-1.6667 -1.3476,-3.6914 -1.3476,-6.0742 m 5.625,0.29297 c 0,2.0573 0.4883,3.6328 1.4648,4.7266 0.9766,1.0938 2.181,1.6406 3.6133,1.6406 1.4323,1e-5 2.6302,-0.54687 3.5938,-1.6406 0.9765,-1.0938 1.4648,-2.6823 1.4648,-4.7656 0,-2.0312 -0.4883,-3.5937 -1.4648,-4.6875 -0.9636,-1.0937 -2.1615,-1.6406 -3.5938,-1.6406 -1.4323,1e-5 -2.6367,0.54689 -3.6133,1.6406 -0.9765,1.0938 -1.4648,2.6693 -1.4648,4.7266"
             inkscape:connector-curvature="0" />
        </g>
      </g>
      <g
         transform="translate(22.483307,16.509739)"
         id="g3213">
        <g
           id="flowRoot2927"
           font-size="26px"
           transform="matrix(0.45050913,0,0,0.47997206,-939.90857,98.95012)"
           font-weight="bold"
           font-style="normal"
           style="font-size:26px;font-style:normal;font-weight:bold;fill:#666666;font-family:arial">
          <path
             id="path3387"
             d="m 1028.2,119.08 0,-2.6172 c -1.3151,2.0573 -3.2487,3.0859 -5.8008,3.0859 -1.6536,0 -3.1771,-0.45573 -4.5703,-1.3672 -1.3802,-0.91146 -2.4544,-2.181 -3.2227,-3.8086 -0.7552,-1.6406 -1.1328,-3.5221 -1.1328,-5.6445 0,-2.0703 0.3451,-3.9453 1.0352,-5.625 0.6901,-1.6927 1.7253,-2.9883 3.1055,-3.8867 1.3802,-0.89842 2.9231,-1.3476 4.6289,-1.3477 1.25,2.1e-5 2.3632,0.26695 3.3398,0.80078 0.9766,0.52085 1.7708,1.2044 2.3828,2.0508 v -10.273 h 3.4961 v 28.633 h -3.2 m -11.113,-10.352 c 0,2.6563 0.5599,4.6419 1.6797,5.957 1.1198,1.3151 2.4414,1.9726 3.9648,1.9726 1.5365,0 2.8386,-0.62499 3.9063,-1.875 1.0807,-1.263 1.6211,-3.1836 1.6211,-5.7617 0,-2.8385 -0.5469,-4.9219 -1.6406,-6.25 -1.0938,-1.3281 -2.4414,-1.9922 -4.043,-1.9922 -1.5625,1e-5 -2.8711,0.63803 -3.9258,1.9141 -1.0417,1.2761 -1.5625,3.2878 -1.5625,6.0352"
             inkscape:connector-curvature="0" />
          <path
             id="path3389"
             d="m 1051.3,112.4 3.6328,0.44922 c -0.5729,2.1224 -1.6341,3.7695 -3.1836,4.9414 -1.5495,1.1719 -3.5286,1.7578 -5.9375,1.7578 -3.0338,0 -5.4427,-0.93099 -7.2265,-2.793 -1.7709,-1.875 -2.6563,-4.4987 -2.6563,-7.8711 0,-3.4896 0.8985,-6.1979 2.6953,-8.125 1.7969,-1.9271 4.1276,-2.8906 6.9922,-2.8906 2.7734,2.1e-5 5.0391,0.94403 6.7969,2.832 1.7578,1.88797 2.6367,4.5443 2.6367,7.9688 0,0.20834 -0.01,0.52084 -0.02,0.9375 h -15.469 c 0.1302,2.2786 0.7748,4.0234 1.9336,5.2344 1.1589,1.2109 2.6042,1.8164 4.336,1.8164 1.289,0 2.3893,-0.33854 3.3007,-1.0156 0.9115,-0.67708 1.6341,-1.7578 2.168,-3.2422 m -11.543,-5.6836 11.582,0 c -0.1563,-1.7448 -0.599,-3.0534 -1.3281,-3.9258 -1.1199,-1.3541 -2.5717,-2.0312 -4.3555,-2.0312 -1.6146,2e-5 -2.9753,0.54039 -4.082,1.6211 -1.0938,1.0807 -1.6993,2.526 -1.8165,4.3359"
             inkscape:connector-curvature="0" />
          <path
             id="path3391"
             d="m 1079.1,119.08 -11.094,-28.633 4.1016,0 7.4414,20.801 c 0.5989,1.6667 1.1002,3.2292 1.5039,4.6875 0.4427,-1.5625 0.957,-3.125 1.543,-4.6875 l 7.7344,-20.801 h 3.8671 l -11.211,28.633 h -3.8867"
             inkscape:connector-curvature="0" />
          <path
             id="path3393"
             d="m 1109.1,112.4 3.6329,0.44922 c -0.573,2.1224 -1.6342,3.7695 -3.1836,4.9414 -1.5495,1.1719 -3.5287,1.7578 -5.9375,1.7578 -3.0339,0 -5.4428,-0.93099 -7.2266,-2.793 -1.7708,-1.875 -2.6563,-4.4987 -2.6563,-7.8711 0,-3.4896 0.8985,-6.1979 2.6954,-8.125 1.7968,-1.9271 4.1276,-2.8906 6.9921,-2.8906 2.7735,2.1e-5 5.0391,0.94403 6.7969,2.832 1.7578,1.88797 2.6367,4.5443 2.6367,7.9688 0,0.20834 -0.01,0.52084 -0.02,0.9375 h -15.469 c 0.1302,2.2786 0.7747,4.0234 1.9336,5.2344 1.1588,1.2109 2.6041,1.8164 4.3359,1.8164 1.289,0 2.3893,-0.33854 3.3008,-1.0156 0.9114,-0.67708 1.6341,-1.7578 2.1679,-3.2422 m -11.543,-5.6836 11.582,0 c -0.1563,-1.7448 -0.599,-3.0534 -1.3281,-3.9258 -1.1198,-1.3541 -2.5717,-2.0312 -4.3555,-2.0312 -1.6146,2e-5 -2.9753,0.54039 -4.082,1.6211 -1.0938,1.0807 -1.6992,2.526 -1.8164,4.3359"
             inkscape:connector-curvature="0" />
          <path
             id="path3395"
             d="m 1117.2,119.08 0,-20.742 3.1641,0 0,2.9492 c 1.5234,-2.2786 3.724,-3.4179 6.6016,-3.418 1.25,2.1e-5 2.3958,0.22788 3.4375,0.68359 1.0546,0.44273 1.8424,1.0287 2.3633,1.7578 0.5208,0.72918 0.8853,1.5951 1.0937,2.5976 0.1302,0.65106 0.1953,1.7904 0.1953,3.418 v 12.754 h -3.5156 v -12.617 c 0,-1.4323 -0.1367,-2.5 -0.4102,-3.2031 -0.2734,-0.71612 -0.7617,-1.2825 -1.4648,-1.6992 -0.6901,-0.42967 -1.5039,-0.64452 -2.4414,-0.64454 -1.4974,2e-5 -2.793,0.47528 -3.8867,1.4258 -1.0808,0.95053 -1.6211,2.7539 -1.6211,5.4102 v 11.328 h -3.6"
             inkscape:connector-curvature="0" />
          <path
             id="path3397"
             d="m 1153.7,112.4 3.6328,0.44922 c -0.5729,2.1224 -1.6341,3.7695 -3.1836,4.9414 -1.5495,1.1719 -3.5287,1.7578 -5.9375,1.7578 -3.0339,0 -5.4427,-0.93099 -7.2266,-2.793 -1.7708,-1.875 -2.6562,-4.4987 -2.6562,-7.8711 0,-3.4896 0.8984,-6.1979 2.6953,-8.125 1.7969,-1.9271 4.1276,-2.8906 6.9922,-2.8906 2.7734,2.1e-5 5.039,0.94403 6.7969,2.832 1.7578,1.888 2.6367,4.5443 2.6367,7.9688 0,0.20834 -0.01,0.52084 -0.019,0.9375 h -15.469 c 0.1302,2.2786 0.7747,4.0234 1.9336,5.2344 1.1588,1.2109 2.6042,1.8164 4.3359,1.8164 1.2891,0 2.3893,-0.33854 3.3008,-1.0156 0.9115,-0.67708 1.6341,-1.7578 2.168,-3.2422 m -11.543,-5.6836 11.582,0 c -0.1563,-1.7448 -0.599,-3.0534 -1.3282,-3.9258 -1.1198,-1.3541 -2.5716,-2.0312 -4.3554,-2.0312 -1.6146,2e-5 -2.9753,0.54039 -4.0821,1.6211 -1.0937,1.0807 -1.6992,2.526 -1.8164,4.3359"
             inkscape:connector-curvature="0" />
          <path
             id="path3399"
             d="m 1159.9,119.08 0,-2.8516 13.203,-15.156 c -1.4975,0.0782 -2.8191,0.11721 -3.9649,0.11719 h -8.457 v -2.8516 h 16.953 v 2.3242 l -11.23,13.164 -2.1679,2.4023 c 1.5755,-0.11718 3.0533,-0.17577 4.4336,-0.17578 h 9.5898 v 3.0274 h -18.359"
             inkscape:connector-curvature="0" />
          <path
             id="path3401"
             d="m 1195.3,119.08 0,-3.0469 c -1.6146,2.3438 -3.8086,3.5156 -6.582,3.5156 -1.224,0 -2.3698,-0.23438 -3.4375,-0.70313 -1.0547,-0.46875 -1.8424,-1.0547 -2.3633,-1.7578 -0.5078,-0.71614 -0.8659,-1.5885 -1.0742,-2.6172 -0.1432,-0.6901 -0.2148,-1.7838 -0.2148,-3.2812 v -12.852 h 3.5156 v 11.504 c 0,1.8359 0.072,3.0729 0.2148,3.7109 0.2214,0.92449 0.6901,1.6536 1.4063,2.1875 0.7161,0.52084 1.6015,0.78126 2.6562,0.78125 1.0547,1e-5 2.0443,-0.26692 2.9688,-0.80078 0.9245,-0.54687 1.5755,-1.2826 1.9531,-2.207 0.3906,-0.93749 0.5859,-2.2917 0.586,-4.0625 v -11.113 h 3.5156 v 20.742 h -3.2"
             inkscape:connector-curvature="0" />
          <path
             id="path3403"
             d="m 1218.2,112.4 3.6329,0.44922 c -0.573,2.1224 -1.6342,3.7695 -3.1836,4.9414 -1.5495,1.1719 -3.5287,1.7578 -5.9375,1.7578 -3.0339,0 -5.4428,-0.93099 -7.2266,-2.793 -1.7708,-1.875 -2.6563,-4.4987 -2.6563,-7.8711 0,-3.4896 0.8985,-6.1979 2.6954,-8.125 1.7968,-1.9271 4.1276,-2.8906 6.9921,-2.8906 2.7735,2.1e-5 5.0391,0.94403 6.7969,2.832 1.7578,1.88797 2.6367,4.5443 2.6367,7.9688 0,0.20834 -0.01,0.52084 -0.02,0.9375 h -15.469 c 0.1302,2.2786 0.7747,4.0234 1.9336,5.2344 1.1588,1.2109 2.6041,1.8164 4.3359,1.8164 1.289,0 2.3893,-0.33854 3.3008,-1.0156 0.9114,-0.67708 1.6341,-1.7578 2.1679,-3.2422 m -11.543,-5.6836 11.582,0 c -0.1563,-1.7448 -0.599,-3.0534 -1.3281,-3.9258 -1.1198,-1.3541 -2.5717,-2.0312 -4.3555,-2.0312 -1.6146,2e-5 -2.9753,0.54039 -4.082,1.6211 -1.0938,1.0807 -1.6992,2.526 -1.8164,4.3359"
             inkscape:connector-curvature="0" />
          <path
             id="path3405"
             d="m 1226.2,119.08 0,-28.633 3.5156,0 0,28.633 -3.5156,0"
             inkscape:connector-curvature="0" />
          <path
             id="path3407"
             d="m 1248.7,116.52 c -1.3021,1.1068 -2.5587,1.888 -3.7696,2.3438 -1.1979,0.45573 -2.487,0.6836 -3.8672,0.6836 -2.2786,0 -4.0299,-0.55339 -5.2539,-1.6602 -1.2239,-1.1198 -1.8359,-2.5456 -1.8359,-4.2773 0,-1.0156 0.2279,-1.9401 0.6836,-2.7734 0.4687,-0.84635 1.0742,-1.5234 1.8164,-2.0312 0.7552,-0.5078 1.6015,-0.89192 2.5391,-1.1523 0.69,-0.18228 1.7317,-0.35807 3.125,-0.52735 2.8385,-0.33853 4.9283,-0.74217 6.2695,-1.2109 0.013,-0.48175 0.02,-0.78774 0.02,-0.91796 0,-1.4323 -0.332,-2.4414 -0.9961,-3.0274 -0.8984,-0.79425 -2.2331,-1.1914 -4.0039,-1.1914 -1.6536,1e-5 -2.8776,0.29298 -3.6719,0.8789 -0.7812,0.57294 -1.3606,1.5951 -1.7382,3.0664 l -3.4375,-0.46875 c 0.3125,-1.4713 0.8268,-2.6562 1.5429,-3.5547 0.7162,-0.91144 1.7513,-1.6081 3.1055,-2.0898 1.3542,-0.49477 2.9232,-0.74217 4.707,-0.74219 1.7708,2.1e-5 3.2096,0.20835 4.3164,0.625 1.1068,0.41669 1.9206,0.94403 2.4414,1.582 0.5209,0.62502 0.8854,1.4193 1.0938,2.3828 0.1172,0.59898 0.1757,1.6797 0.1758,3.2422 v 4.6875 c -10e-5,3.2682 0.072,5.3386 0.2148,6.2109 0.1562,0.85938 0.4557,1.6862 0.8985,2.4805 h -3.6719 c -0.3646,-0.72917 -0.599,-1.582 -0.7031,-2.5586 m -0.293,-7.8516 c -1.2761,0.52084 -3.1901,0.96355 -5.7422,1.3281 -1.4453,0.20834 -2.4675,0.44271 -3.0664,0.70312 -0.599,0.26043 -1.0612,0.64454 -1.3867,1.1523 -0.3256,0.4948 -0.4883,1.0482 -0.4883,1.6602 0,0.93751 0.3515,1.7188 1.0547,2.3438 0.7161,0.625 1.7578,0.9375 3.125,0.9375 1.3541,0 2.5586,-0.29297 3.6133,-0.87891 1.0546,-0.59895 1.8294,-1.4128 2.3242,-2.4414 0.3776,-0.79427 0.5664,-1.9661 0.5664,-3.5156 v -1.2891"
             inkscape:connector-curvature="0" />
        </g>
      </g>
      <g
         transform="matrix(0.9214186,0,0,0.9214186,-680.88257,-371.54309)"
         id="g4">
        <g
           id="g6">
          <g
             transform="matrix(0.82358133,0,0,0.82358133,9.2651249,318.95749)"
             id="g10">
            <g
               id="g14">
              <path
                 style="fill:#ffffff"
                 d="m 234.7,267.98 c 9.479,-2.047 25.73,-10.439 33.107,-22.656 v 68.556 c -7.483,4.564 -15.79,7.421 -24.519,8.529 l -0.881,-5.732 c -9.988,-0.87 -19.213,4.944 -28.518,13.999 h -23.954 v -46.965 c 11.848,-14.682 25.735,-19.317 44.239,-19.241 l 0.526,3.51 z"
                 id="path16"
                 inkscape:connector-curvature="0" />
              <g
                 id="g18">
                <path
                   style="fill:#0069af"
                   d="m 189.94,330.68 0,-24.059 0.083,-0.524 c 12.194,-16.044 25.768,-25.43 46.739,-24.415 l 0.706,4.246 c 10.616,-1.624 23.504,-8.704 30.344,-16.785 v -0.578 24.468 c -8.761,7.048 -18.028,10.779 -27.445,11.324 l -0.815,-4.861 c -19.307,0.73 -37.316,14.464 -49.612,31.184 z"
                   id="path20"
                   inkscape:connector-curvature="0" />
                <path
                   style="fill:#ffe300"
                   d="m 234.7,267.98 c 9.479,-2.047 25.73,-10.439 33.107,-22.656 v 23.813 c -6.84,8.081 -19.728,15.161 -30.344,16.785 l -0.706,-4.246 c -21.019,-1.018 -34.606,8.412 -46.821,24.523 l -0.001,-22.489 c 11.848,-14.682 25.734,-19.316 44.239,-19.24 l 0.526,3.51 z"
                   id="path22"
                   inkscape:connector-curvature="0" />
                <path
                   style="fill:#e31c2e"
                   d="m 242.41,316.68 c -9.988,-0.87 -19.213,4.944 -28.518,13.999 h -23.954 v -0.002 c 12.296,-16.72 30.305,-30.454 49.612,-31.184 l 0.815,4.861 c 9.417,-0.545 18.683,-4.276 27.445,-11.324 v 20.853 c -7.483,4.564 -15.79,7.421 -24.519,8.529 l -0.881,-5.732 z"
                   id="path24"
                   inkscape:connector-curvature="0" />
              </g>
              <g
                 style="fill:#ffffff"
                 id="g26">
                <path
                   d="m 238.4,291 1.276,1.314 2.279,-1.369 -0.985,2.481 2.095,1.8 -2.704,-0.267 -0.985,2.481 -1,-6.43 z"
                   id="path28"
                   inkscape:connector-curvature="0" />
                <path
                   d="m 194.47,309.14 2.094,1.8 2.28,-1.369 -0.985,2.481 2.094,1.8 -2.703,-0.267 -0.985,2.481 -0.686,-2.646 -2.703,-0.266 2.28,-1.369 -0.686,-2.645 z"
                   id="path30"
                   inkscape:connector-curvature="0" />
                <path
                   d="m 201.58,301.8 2.094,1.8 2.28,-1.368 -0.985,2.48 2.095,1.8 -2.704,-0.266 -0.985,2.481 -0.686,-2.646 -2.703,-0.266 2.28,-1.369 -0.686,-2.646 z"
                   id="path32"
                   inkscape:connector-curvature="0" />
                <path
                   d="m 210.18,295.24 2.095,1.801 2.279,-1.369 -0.985,2.481 2.095,1.799 -2.704,-0.266 -0.984,2.481 -0.686,-2.646 -2.704,-0.266 2.28,-1.369 -0.686,-2.646 z"
                   id="path34"
                   inkscape:connector-curvature="0" />
                <path
                   d="m 219.97,289.86 2.095,1.8 2.28,-1.369 -0.986,2.481 2.095,1.8 -2.703,-0.266 -0.985,2.481 -0.686,-2.646 -2.703,-0.266 2.28,-1.369 -0.687,-2.646 z"
                   id="path36"
                   inkscape:connector-curvature="0" />
                <path
                   d="m 229.43,288.61 2.094,1.8 2.28,-1.369 -0.985,2.481 2.095,1.8 -2.704,-0.266 -0.985,2.481 -0.686,-2.646 -2.703,-0.266 2.28,-1.369 -0.686,-2.646 z"
                   id="path38"
                   inkscape:connector-curvature="0" />
                <path
                   d="m 247.84,287.67 2.095,1.801 2.279,-1.369 -0.985,2.481 2.095,1.799 -2.704,-0.266 -0.985,2.481 -0.685,-2.646 -2.704,-0.266 2.28,-1.369 -0.686,-2.646 z"
                   id="path40"
                   inkscape:connector-curvature="0" />
                <path
                   d="m 256.65,283.34 2.094,1.8 2.28,-1.369 -0.985,2.481 2.094,1.8 -2.703,-0.266 -0.985,2.481 -0.686,-2.646 -2.703,-0.266 2.28,-1.369 -0.686,-2.646 z"
                   id="path42"
                   inkscape:connector-curvature="0" />
              </g>
            </g>
          </g>
        </g>
      </g>
    </g>
    <path
       id="rect2961-3"
       d="m -516.00751,185.77289 187.7955,0 0,1.7187 -187.7955,0 0,-1.7187 z"
       style="fill:#4d4d4d;fill-rule:nonzero"
       inkscape:connector-curvature="0" />
    <path
       style="fill:#4d4d4d;fill-rule:nonzero"
       d="m -516.00751,212.54404 187.7955,0 0,1.7187 -187.7955,0 0,-1.7187 z"
       id="path3304"
       inkscape:connector-curvature="0" />
    <path
       style="fill:#f2f2f2;fill-opacity:1;fill-rule:nonzero;stroke:none"
       d="m -321.16501,101.14603 387.024995,0 0,350 -387.024995,0 0,-350 z"
       id="rect3320"
       inkscape:connector-curvature="0" />
    <g
       style="opacity:0.04195804;filter:url(#filter4450)"
       transform="matrix(0.42206069,0,0,0.42206069,-448.69948,75.630518)"
       id="g3614">
      <path
         style="fill:#0000c1;stroke:none"
         d="m 164.00611,807.10861 c -22.55064,1.95212 -44.29522,-38.18584 -48.73985,-103.44297 -4.44462,-65.257 8.47138,-149.92597 34.41453,-150.21242 25.42891,-0.28076 45.30024,57.23776 47.01279,123.40548 1.69231,65.38638 0.61168,127.36731 -32.68747,130.24991 z m -10.80272,-31.47869 c 18.54046,-5.62712 30.79135,-40.57444 27.12517,-94.40224 -3.66618,-53.82775 -21.12715,-100.87894 -36.02201,-99.39433 -14.27303,1.42267 -31.44065,47.41964 -29.59605,101.39827 1.88968,55.29792 22.15671,97.3563 38.49289,92.3983 z"
         id="path4134"
         inkscape:connector-curvature="0"
         sodipodi:nodetypes="ssssssssss" />
      <path
         style="fill:#0000c1;stroke:none"
         d="m 250.01013,600.50781 c -4.81285,-19.65608 -52.25167,-10.8503 -101.1821,32.21492 -49.89139,43.911 -107.441462,112.55769 -82.723145,140.6988 17.231289,19.61732 62.165445,-6.72551 111.095885,-52.06748 48.75003,-45.17479 77.21647,-102.84726 72.80936,-120.84624 z m -34.30344,12.52071 c 6.33564,8.56795 -3.39448,55.05091 -44.56293,92.71394 -40.44914,37.00508 -84.280206,62.19105 -95.322013,46.36457 -10.685144,-15.31529 15.029237,-65.74842 56.516513,-101.58572 42.50124,-36.71314 77.03278,-46.06075 83.36843,-37.49279 z"
         id="path4136"
         inkscape:connector-curvature="0"
         sodipodi:nodetypes="ssssszsssz" />
      <path
         inkscape:connector-curvature="0"
         id="path4138"
         d="m 247.56283,762.95829 c 0.2355,5.69788 -50.05975,-12.40469 -95.77778,-60.64565 -45.71803,-48.24096 -98.836064,-92.61548 -90.246741,-105.61363 10.195642,-15.429 51.265351,20.05289 100.198441,67.27739 47.82394,46.15402 85.06082,80.46699 85.82608,98.98189 z M 217.0325,740.40197 c -5.41704,-7.4993 -20.1678,-30.7452 -59.3313,-69.1083 -39.96472,-39.14794 -80.634653,-65.43651 -85.275879,-62.12104 -6.622733,4.73095 27.370233,36.38436 65.888949,77.36194 38.85515,41.33551 82.90811,59.66778 78.71823,53.8674 z"
         style="fill:#0000c1;stroke:none"
         sodipodi:nodetypes="ssssssssss" />
      <path
         sodipodi:nodetypes="ssssssssss"
         inkscape:connector-curvature="0"
         id="path4142"
         d="m 285.26621,678.19848 c -11.3254,-10.87199 -73.25269,-16.29137 -139.83298,-14.78124 -66.580286,1.51011 -121.976168,12.19718 -108.652189,23.86036 11.266063,9.86185 88.384329,16.08664 154.964639,14.57643 66.58027,-1.5101 103.81285,-13.77527 93.52053,-23.65555 z m -37.58907,-2.91131 c 10.74182,8.35724 -9.77631,15.69764 -64.69558,16.94327 -54.91927,1.24564 -113.482735,-1.86071 -122.2599,-9.13974 -8.410775,-6.97514 10.620924,-16.66261 64.43693,-18.79672 55.13122,-2.18627 111.86157,2.70196 122.51855,10.99319 z"
         style="fill:#0000c1;stroke:none" />
      <path
         transform="matrix(1.274978,0,0,1.274978,-390.12759,-310.39571)"
         style="fill:#ffffff;stroke:none;filter:url(#filter3928)"
         d="m 490,792.00507 c 0,19.13272 -16.38958,34.64285 -36.60715,34.64285 -20.21756,0 -36.60714,-15.51013 -36.60714,-34.64285 0,-19.13273 16.38958,-34.64286 36.60714,-34.64286 20.21757,0 36.60715,15.51013 36.60715,34.64286 z"
         id="path4144"
         inkscape:connector-curvature="0" />
      <path
         id="path4146"
         d="m 444.34931,646.16121 0,52.27441 c 0,2.517 0.68896,7.2116 -4.50145,7.2116 l -24.6233,0 c -4.90493,-0.0456 -6.49515,-2.49603 -6.49515,-7.53059 l 0,-51.63641 -19.48325,0 0,62.91226 c 0,1.03249 0.21091,2.0979 0.5585,3.1875 l 71.91625,0 c 0.14967,-0.99896 0.22751,-2.05462 0.19915,-3.1875 l 0.27925,-63.23127 -17.85,0 z m 105.46565,0.15951 -15.81845,0.11817 0.11808,50.79975 c 0.28464,4.03941 -4.37626,4.43482 -6.37415,-1.59377 L 509.4523,659.66665 c -6.60529,-17.21511 -33.5949,-17.46034 -36.97487,-0.43822 l -0.11807,53.35047 17.89005,0 0.19915,-42.27415 c 0.52133,-1.87817 2.14754,-2.23323 3.38665,0.11829 l 20.75825,38.72814 c 0.71156,1.24065 1.51851,2.36932 2.35085,3.42612 l 31.8739,0 c 0.46692,-1.04919 0.83367,-2.19677 1.1159,-3.42612 l -0.11807,-62.83321 z m -221.40945,0.1595 c -7.56613,0 -17.8489,6.45778 -17.8489,14.0247 l 0,52.07506 17.8489,0 0,-17.33179 48.45,-0.31906 0,-19.12453 -48.45,0.51798 0,-9.44279 c 0,-1.53251 2.29315,-2.54995 3.825,-2.54995 l 44.625,0 0,-17.84962 -48.45,0 z m 233.3217,0 0,17.84962 52.275,0 c 1.8999,0 5.1,0.64938 5.1,2.54995 l 0,31.87434 c 0,2.47826 -1.3467,6.375 -3.825,6.375 l -35.7,0 0,-33.14945 -17.85,0 0,40.6003 73.67075,0 c 0.19162,-0.79245 0.27815,-1.58561 0.27815,-2.35085 l 0,-50.99918 c 0,-6.01064 -6.739,-12.74973 -12.7489,-12.74973 l -61.2,0 z m 89.2489,0 0,17.84962 55.2233,0 4.7006,2.54995 0,12.74972 c 0,0.84999 -1.9488,0.60085 -2.54993,0 -1.27496,-1.27497 -2.02147,-3.82491 -3.82397,-3.82491 l -39.525,0 c -6.611,0 -14.025,7.41348 -14.025,14.02461 l 0,21.67492 c 0,0.36402 0.0208,0.71713 0.0845,1.07585 l 76.41919,0 0,-48.25014 c 0,-7.56684 -6.45803,-17.84962 -14.0248,-17.84962 l -62.47409,0 z m 101.9989,0 c -6.01084,0 -12.75,6.73907 -12.75,12.74973 l 0,50.99918 c 0,0.77865 0.14847,1.56399 0.35825,2.35085 l 62.11565,0 0,-7.45085 -40.7989,0 c -1.8036,0 -3.825,-2.02158 -3.825,-3.825 l 0,-34.42434 c 0,-1.53251 2.292,-2.54995 3.825,-2.54995 l 40.7989,0 0,-17.84962 -49.7239,0 z m 101.9989,0 0,17.84962 26.7739,0 0,48.25014 19.125,0 0,-66.09976 -45.8989,0 z m 49.7239,0 0,66.09976 19.125,0 0,-48.25014 26.7739,0 0,-17.84962 -45.8989,0 z m 72.6739,0 c -6.3183,0 -14.025,6.43176 -14.025,12.74973 l 0,50.99918 c 0,0.78992 0.13599,1.57036 0.35827,2.35085 l 72.31492,0 0,-7.45085 -49.72319,0 c -1.8036,0 -3.825,-2.02158 -3.825,-3.825 l 0,-6.375 40.79829,0 c 16.151,0 16.151,-48.44891 0,-48.44891 l -45.89829,0 z m 6.375,17.84962 33.14839,0 c 3.8249,0 3.8249,11.47476 0,11.47476 l -34.42339,0 0,-10.19979 c 0,-0.60094 0.6738,-1.27497 1.275,-1.27497 z m -313.6456,30.59929 40.7989,0 0,7.65 c 0,1.2023 -1.3476,2.55 -2.54993,2.55 l -35.69897,0 c -0.95,0 -2.55,-1.59956 -2.55,-2.55 l 0,-7.65 z m -359.5445,22.79059 0,5.25939 17.8489,0 0,-5.25939 -17.8489,0 z m 82.03725,0 c 2.49202,3.14409 6.06596,5.53813 9.6415,5.53813 l 45.4216,0 c 5.58937,0 9.87448,-1.88879 12.23155,-5.53813 l -67.29465,0 z m 79.72535,0 0,4.38271 17.89005,0 0.0422,-4.38271 -17.92943,0 z m 50.00315,0 c 7.62808,5.33211 17.04208,5.31277 22.83095,0 l -22.83095,0 z m 39.40485,0 0,5.25939 62.475,0 c 3.24065,0 6.47453,-2.26032 8.6858,-5.25939 l -71.1608,0 z m 91.99805,0 c 2.86566,3.11159 7.46645,5.25939 11.27585,5.25939 l 42.07401,0 c 0,-2.54998 3.82489,-2.54998 3.82489,0 l 16.575,0 0,-5.25939 -73.74975,0 z m 89.5682,0 c 2.51742,3.03652 6.2252,5.25939 9.68155,5.25939 l 49.7239,0 0,-5.25939 -59.40545,0 z m 138.45435,0 0,5.25939 19.125,0 0,-5.25939 -19.125,0 z m 22.95,0 0,5.25939 19.125,0 0,-5.25939 -19.125,0 z m 62.03555,0 c 2.82509,3.0706 6.95788,5.25939 10.63835,5.25939 l 58.64819,0 0,-5.25939 -69.28654,0 z"
         style="fill:#000000;stroke:#000000;stroke-width:0.37575752000000001;stroke-miterlimit:4;stroke-dasharray:none"
         inkscape:connector-curvature="0" />
      <g
         id="flowRoot4097"
         style="font-size:40px;font-style:normal;font-weight:normal;line-height:125%;letter-spacing:0px;word-spacing:0px;fill:#000000;stroke:#000000;stroke-width:0.53053415000000004;stroke-miterlimit:4;stroke-dasharray:none;font-family:Sans"
         transform="matrix(0,-0.58282096,0.85652739,0,-231.25906,1682.9777)">
        <path
           inkscape:connector-curvature="0"
           id="path4106"
           style="fill:#000000;stroke:#000000;stroke-width:0.53053415000000004;stroke-miterlimit:4;stroke-dasharray:none;-inkscape-font-specification:Sans"
           d="m 1666.2813,1224.8856 0,3.8476 c -1.4975,-0.7161 -2.9102,-1.2499 -4.2383,-1.6015 -1.3282,-0.3516 -2.6107,-0.5273 -3.8477,-0.5274 -2.1484,10e-5 -3.8086,0.4167 -4.9805,1.25 -1.1588,0.8334 -1.7382,2.0183 -1.7382,3.5547 0,1.2891 0.3841,2.2657 1.1523,2.9297 0.7812,0.6511 2.2526,1.1784 4.4141,1.582 l 2.3828,0.4883 c 2.9427,0.5599 5.1106,1.5495 6.5039,2.9688 1.4062,1.4062 2.1093,3.2943 2.1094,5.664 -10e-5,2.8256 -0.9506,4.9675 -2.8516,6.4258 -1.888,1.4584 -4.6615,2.1875 -8.3203,2.1875 -1.3802,0 -2.8516,-0.1562 -4.4141,-0.4687 -1.5495,-0.3125 -3.1575,-0.7748 -4.8242,-1.3867 l 0,-4.0625 c 1.6016,0.8984 3.1706,1.5755 4.707,2.0312 1.5365,0.4557 3.0469,0.6836 4.5313,0.6836 2.2526,0 3.9909,-0.4427 5.2148,-1.3281 1.224,-0.8854 1.8359,-2.1485 1.836,-3.7891 -10e-5,-1.4323 -0.4428,-2.5521 -1.3282,-3.3594 -0.8724,-0.8072 -2.3112,-1.4127 -4.3164,-1.8164 l -2.4023,-0.4687 c -2.9427,-0.5859 -5.0716,-1.5039 -6.3867,-2.7539 -1.3151,-1.25 -1.9727,-2.9883 -1.9727,-5.2149 0,-2.5781 0.905,-4.6093 2.7149,-6.0937 1.8229,-1.4844 4.3294,-2.2266 7.5195,-2.2266 1.3672,0 2.7604,0.1237 4.1797,0.3711 1.4192,0.2474 2.8711,0.6185 4.3555,1.1133" />
        <path
           inkscape:connector-curvature="0"
           id="path4108"
           style="fill:#000000;stroke:#000000;stroke-width:0.53053415000000004;stroke-miterlimit:4;stroke-dasharray:none;-inkscape-font-specification:Sans"
           d="m 1673.7422,1223.9286 3.9648,0 0,17.7148 c 0,3.125 0.5664,5.3776 1.6993,6.7578 1.1328,1.3672 2.9687,2.0508 5.5078,2.0508 2.526,0 4.3554,-0.6836 5.4882,-2.0508 1.1328,-1.3802 1.6992,-3.6328 1.6993,-6.7578 l 0,-17.7148 3.9648,0 0,18.2031 c 0,3.8021 -0.944,6.6732 -2.832,8.6133 -1.875,1.9401 -4.6485,2.9101 -8.3203,2.9101 -3.6849,0 -6.4714,-0.97 -8.3594,-2.9101 -1.875,-1.9401 -2.8125,-4.8112 -2.8125,-8.6133 l 0,-18.2031" />
        <path
           inkscape:connector-curvature="0"
           id="path4110"
           style="fill:#000000;stroke:#000000;stroke-width:0.53053415000000004;stroke-miterlimit:4;stroke-dasharray:none;-inkscape-font-specification:Sans"
           d="m 1725.3242,1226.1747 0,4.1601 c -1.3281,-1.2369 -2.7474,-2.1614 -4.2578,-2.7734 -1.4974,-0.612 -3.0925,-0.918 -4.7851,-0.918 -3.3334,0 -5.8855,1.0222 -7.6563,3.0664 -1.7708,2.0313 -2.6563,4.974 -2.6562,8.8281 -1e-4,3.8412 0.8854,6.7839 2.6562,8.8282 1.7708,2.0312 4.3229,3.0468 7.6563,3.0468 1.6926,0 3.2877,-0.306 4.7851,-0.9179 1.5104,-0.612 2.9297,-1.5365 4.2578,-2.7735 l 0,4.1211 c -1.3802,0.9375 -2.8451,1.6406 -4.3945,2.1094 -1.5365,0.4687 -3.1641,0.7031 -4.8828,0.7031 -4.4141,0 -7.8907,-1.3476 -10.4297,-4.0429 -2.5391,-2.7084 -3.8086,-6.3998 -3.8086,-11.0743 0,-4.6874 1.2695,-8.3788 3.8086,-11.0742 2.539,-2.7083 6.0156,-4.0625 10.4297,-4.0625 1.7447,0 3.3854,0.2344 4.9219,0.7031 1.5494,0.4558 3.0012,1.1459 4.3554,2.0704" />
        <path
           inkscape:connector-curvature="0"
           id="path4112"
           style="fill:#000000;stroke:#000000;stroke-width:0.53053415000000004;stroke-miterlimit:4;stroke-dasharray:none;-inkscape-font-specification:Sans"
           d="m 1745.2852,1239.4168 c 0.8463,0.2865 1.6666,0.8985 2.4609,1.836 0.8073,0.9375 1.6146,2.2266 2.4219,3.8672 l 4.0039,7.9687 -4.2383,0 -3.7305,-7.4805 c -0.9635,-1.9531 -1.901,-3.2486 -2.8125,-3.8867 -0.8984,-0.638 -2.1289,-0.957 -3.6914,-0.957 l -4.2969,0 0,12.3242 -3.9453,0 0,-29.1601 8.9063,0 c 3.3333,0 5.8203,0.6966 7.4609,2.0898 1.6406,1.3933 2.4609,3.4961 2.461,6.3086 -10e-5,1.836 -0.4298,3.3594 -1.2891,4.5703 -0.8464,1.211 -2.0834,2.0508 -3.7109,2.5195 m -9.8829,-12.2461 0,10.3516 4.961,0 c 1.901,0 3.3333,-0.4362 4.2969,-1.3086 0.9765,-0.8854 1.4648,-2.181 1.4648,-3.8867 0,-1.7057 -0.4883,-2.9883 -1.4648,-3.8477 -0.9636,-0.8723 -2.3959,-1.3085 -4.2969,-1.3086 l -4.961,0" />
        <path
           inkscape:connector-curvature="0"
           id="path4114"
           style="fill:#000000;stroke:#000000;stroke-width:0.53053415000000004;stroke-miterlimit:4;stroke-dasharray:none;-inkscape-font-specification:Sans"
           d="m 1759.2695,1223.9286 18.4375,0 0,3.3203 -14.4922,0 0,8.6328 13.8868,0 0,3.3203 -13.8868,0 0,10.5664 14.8438,0 0,3.3203 -18.7891,0 0,-29.1601" />
      </g>
    </g>
    <flowRoot
       xml:space="preserve"
       id="flowRoot2832-5"
       style="font-size:26px;font-style:normal;font-weight:bold;fill:#4d4d4d;fill-opacity:1;stroke:none;font-family:arial;-inkscape-font-specification:arial"
       transform="matrix(0.44028884,0,0,0.47961794,-962.12072,176.01643)"><flowRegion
         id="flowRegion2834"><rect
           id="rect2836"
           width="458.57144"
           height="102.14286"
           x="1012.1429"
           y="79.714287"
           style="font-size:26px;fill:#4d4d4d;font-family:arial;-inkscape-font-specification:arial" /></flowRegion><flowPara
         id="flowPara2838"
         style="font-size:28px">FUNDACITE Sucre</flowPara></flowRoot>    <flowRoot
       transform="matrix(0.29904225,0,0,0.32575442,-818.79667,174.79882)"
       style="font-size:26px;font-style:normal;font-weight:bold;fill:#4d4d4d;fill-opacity:1;stroke:none;font-family:arial;-inkscape-font-specification:arial"
       id="flowRoot2848-5"
       xml:space="preserve"><flowRegion
         id="flowRegion2850"><rect
           style="font-size:26px;fill:#4d4d4d;font-family:arial;-inkscape-font-specification:arial"
           y="79.714287"
           x="1012.1429"
           height="88.224808"
           width="677.85358"
           id="rect2852" /></flowRegion><flowPara
         style="font-size:25px;font-weight:normal;-inkscape-font-specification:'13th Ghostwrite JRZ'"
         id="flowPara2854"><flowSpan
           id="flowSpan2856"
           style="fill:#666666">para la </flowSpan><flowSpan
           id="flowSpan2870"
           style="font-weight:bold;-inkscape-font-specification:'13th Ghostwrite JRZ Bold'">Educación Universitaria, Ciencia y Tecnología</flowSpan></flowPara></flowRoot>    <flowRoot
       transform="matrix(0.31727281,0,0,0.35655152,-837.4818,163.60215)"
       style="font-size:26px;font-style:normal;font-weight:bold;fill:#808080;fill-opacity:1;stroke:none;font-family:arial;-inkscape-font-specification:arial"
       id="flowRoot2840"
       xml:space="preserve"><flowRegion
         id="flowRegion2842"><rect
           style="font-size:26px;fill:#808080;font-family:arial;-inkscape-font-specification:arial"
           y="79.714287"
           x="1012.1429"
           height="102.14286"
           width="458.57144"
           id="rect2844" /></flowRegion><flowPara
         style="font-size:25px;font-weight:normal;fill:#666666;-inkscape-font-specification:'13th Ghostwrite JRZ'"
         id="flowPara2846">Ministerio del Poder Popular</flowPara></flowRoot>  </g>
</svg>
