<?xml version="1.0" encoding="UTF-8" standalone="no"?>
<svg
   xmlns:dc="http://purl.org/dc/elements/1.1/"
   xmlns:cc="http://creativecommons.org/ns#"
   xmlns:rdf="http://www.w3.org/1999/02/22-rdf-syntax-ns#"
   xmlns:svg="http://www.w3.org/2000/svg"
   xmlns="http://www.w3.org/2000/svg"
   xmlns:sodipodi="http://sodipodi.sourceforge.net/DTD/sodipodi-0.dtd"
   xmlns:inkscape="http://www.inkscape.org/namespaces/inkscape"
   version="1.1"
   width="24"
   height="24"
   viewBox="0 0 24 24"
   id="svg2"
   inkscape:version="0.48.3.1 r9886"
   sodipodi:docname="icon-persona_carpeta.svg">
  <metadata
     id="metadata10">
    <rdf:RDF>
      <cc:Work
         rdf:about="">
        <dc:format>image/svg+xml</dc:format>
        <dc:type
           rdf:resource="http://purl.org/dc/dcmitype/StillImage" />
      </cc:Work>
    </rdf:RDF>
  </metadata>
  <defs
     id="defs8">
    <inkscape:perspective
       sodipodi:type="inkscape:persp3d"
       inkscape:vp_x="0 : 0.5 : 1"
       inkscape:vp_y="0 : 1000 : 0"
       inkscape:vp_z="1 : 0.5 : 1"
       inkscape:persp3d-origin="0.5 : 0.33333333 : 1"
       id="perspective2955" />
    <inkscape:perspective
       id="perspective2972"
       inkscape:persp3d-origin="372.04724 : 350.78739 : 1"
       inkscape:vp_z="744.09448 : 526.18109 : 1"
       inkscape:vp_y="0 : 1000 : 0"
       inkscape:vp_x="0 : 526.18109 : 1"
       sodipodi:type="inkscape:persp3d" />
    <linearGradient
       id="linearGradient3819">
      <stop
         id="stop3821"
         offset="0"
         style="stop-color:#61ff67;stop-opacity:1;" />
      <stop
         style="stop-color:#27b52d;stop-opacity:1;"
         offset="1"
         id="stop3827" />
    </linearGradient>
  </defs>
  <sodipodi:namedview
     pagecolor="#ffffff"
     bordercolor="#666666"
     borderopacity="1"
     objecttolerance="10"
     gridtolerance="10"
     guidetolerance="10"
     inkscape:pageopacity="0"
     inkscape:pageshadow="2"
     inkscape:window-width="1280"
     inkscape:window-height="946"
     id="namedview6"
     showgrid="false"
     inkscape:zoom="9.8333333"
     inkscape:cx="1.4552895"
     inkscape:cy="16.760932"
     inkscape:window-x="0"
     inkscape:window-y="24"
     inkscape:window-maximized="1"
     inkscape:current-layer="svg2" />
  <path
     d="m 21.515254,4.9423729 -9.464407,0 -2.3661012,-2.3661017 -7.0983051,0 c -1.3131865,0 -2.36610172,1.0529152 -2.36610172,2.3661017 l 0,14.1966101 c 0,1.238889 1.12721362,2.366102 2.36610172,2.366102 l 18.9288133,0 c 1.238889,0 2.366102,-1.127213 2.366102,-2.366102 l 0,-11.8305084 c 0,-1.3131865 -1.064746,-2.3661017 -2.366102,-2.3661017 z"
     id="path4"
     inkscape:connector-curvature="0"
     sodipodi:nodetypes="sccssssssss"
     style="fill:#ff6600;fill-opacity:1" />
  <g
     transform="matrix(0.63749729,0,0,0.63749729,6.6574134,-645.90589)"
     id="layer1"
     inkscape:label="Capa 1"
     style="fill:#1a1a1a">
    <g
       style="fill:#1a1a1a"
       transform="matrix(0.70672991,0,0,0.70672991,3.379823,305.58251)"
       id="g2991">
      <path
         d="m 13.357143,1028.8264 c 0.460215,2.1767 0.717092,3.8233 0.34375,6 -2.910693,2.4149 -10.3549082,3.5 -10.3437502,6 l -1,6.5 c 0,2.4853 6.939586,4.5 15.5000002,4.5 8.560414,0 15.5,-2.0147 15.5,-4.5 l -1,-6.5 c -0.01187,-2.1397 -7.5,-3.5 -10.375,-6 -0.245574,-2.0203 -0.05009,-3.9797 0.375,-6 l -9,0 z"
         inkscape:connector-curvature="0"
         id="path3754"
         style="fill:#1a1a1a;fill-opacity:1;stroke:none" />
      <path
         inkscape:connector-curvature="0"
         d="m 17.922781,1046.1868 c -3.272932,0.1052 -6.489593,1.2047 -9.9117882,2.8242 a 1.0890997,1.0890997 0 0 0 -0.597423,1.2491 l 0.543111,2.1996 a 1.0890997,1.0890997 0 0 0 0.67889,0.7332 c 0.140563,0.054 0.239342,0.1598 0.624579,0.2716 2.0293242,0.5892 5.1338892,1.0048 8.6083202,1.0048 3.474432,0 6.578996,-0.4156 8.608321,-1.0048 0.385236,-0.1118 0.484014,-0.2172 0.624578,-0.2716 a 1.0890997,1.0890997 0 0 0 0.67889,-0.706 l 0.570267,-2.0095 a 1.0890997,1.0890997 0 0 0 -0.461645,-1.1949 c -3.409788,-2.2714 -6.693168,-3.2009 -9.9661,-3.0957 z"
         id="path3765"
         style="fill:#1a1a1a;fill-opacity:1;stroke:none" />
      <rect
         width="2.7779195"
         height="5.5558391"
         rx="3"
         ry="3"
         x="-391.14139"
         y="945.13922"
         transform="matrix(0.9205234,-0.39068744,0.39068744,0.9205234,0,0)"
         id="rect3767"
         style="fill:#1a1a1a;fill-opacity:1;stroke:none" />
      <rect
         width="2.7779195"
         height="5.5558391"
         rx="3"
         ry="3"
         x="-423.93146"
         y="931.22253"
         transform="matrix(-0.9205234,-0.39068744,-0.39068744,0.9205234,0,0)"
         id="rect3769"
         style="fill:#1a1a1a;fill-opacity:1;stroke:none" />
      <path
         d="m 17.857143,1013.8264 c -4.142136,0 -7.5,3.134 -7.5,7 0.03246,1.4307 0.154571,3.1304 1,7 0.5,1.5 3.95976,5.5 4,6 0.96967,0.5 4.5,0.5 5.5,0 0,-0.5 3,-4.5 3.5,-6 0.951375,-4.0217 0.948972,-5.5 1,-7 0,-3.866 -3.357864,-7 -7.5,-7 z"
         inkscape:connector-curvature="0"
         id="path2976"
         style="fill:#1a1a1a;fill-opacity:1;stroke:none" />
    </g>
  </g>
</svg>
