<?xml version="1.0" encoding="UTF-8" standalone="no"?>
<svg
   xmlns:dc="http://purl.org/dc/elements/1.1/"
   xmlns:cc="http://creativecommons.org/ns#"
   xmlns:rdf="http://www.w3.org/1999/02/22-rdf-syntax-ns#"
   xmlns:svg="http://www.w3.org/2000/svg"
   xmlns="http://www.w3.org/2000/svg"
   width="256"
   height="256"
   viewBox="0 0 67.733332 67.733335"
   version="1.1"
   id="svg8">
  <defs
     id="defs2" />
  <metadata
     id="metadata5">
    <rdf:RDF>
      <cc:Work
         rdf:about="">
        <dc:format>image/svg+xml</dc:format>
        <dc:type
           rdf:resource="http://purl.org/dc/dcmitype/StillImage" />
        <dc:title></dc:title>
      </cc:Work>
    </rdf:RDF>
  </metadata>
  <g
     id="layer1">
    <path
       id="path847"
       style="fill:#000000;stroke-width:1"
       d="M 26.951889,2.3557497 C 20.821481,2.373043 14.715902,4.622342 10.000329,8.989188 6.2532622,12.45915 3.5599882,17.204 2.4967917,22.208901 c -0.8840059,4.16138 -0.5525924,9.270022 0.8653078,13.343547 2.6558801,7.630149 8.7622065,13.428341 16.6307575,15.791425 2.464296,0.740077 3.642017,0.88772 7.042764,0.882207 2.934492,-0.0048 3.281955,-0.03054 4.796644,-0.353337 3.304745,-0.70427 6.462951,-2.016761 9.054333,-3.763118 0.693581,-0.467413 1.295931,-0.849924 1.338441,-0.849924 0.170029,0 2.113711,1.994231 2.113711,2.168692 0,0.10289 -0.47674,0.675323 -1.059252,1.27211 l -1.058999,1.085229 0.316513,0.300879 c 0.174144,0.165539 3.164035,2.819494 6.644032,5.897763 3.479993,3.078266 6.665923,5.906066 7.079836,6.283884 0.784465,0.716066 1.471255,1.127245 2.346495,1.404768 0.727959,0.23085 2.342729,0.218667 3.172459,-0.02396 1.450101,-0.424031 2.571527,-1.412357 3.266026,-2.878138 0.377994,-0.797759 0.405291,-0.951061 0.405291,-2.278653 0,-2.310538 0.281311,-1.922041 -7.449063,-10.285586 -3.631531,-3.928974 -6.670579,-7.184351 -6.753234,-7.234184 -0.08949,-0.05395 -0.510683,0.272544 -1.041094,0.807049 -0.489926,0.493707 -0.978109,0.897589 -1.084977,0.897589 -0.193492,0 -2.201476,-1.908147 -2.201476,-2.092022 0,-0.05312 0.412896,-0.722717 0.917513,-1.487997 C 52.782355,33.599972 53.322385,24.113768 49.265784,16.02867 47.336327,12.183131 44.361525,8.8623272 40.658606,6.4199995 36.503119,3.6791735 31.719985,2.3423009 26.951889,2.3557518 Z m 0.210589,7.6828533 c 0.968187,0.0076 1.91922,0.0795 2.694787,0.217398 7.080054,1.258931 12.502406,6.523477 14.04013,13.631562 0.313532,1.449305 0.381993,4.442381 0.135937,5.941395 -1.165333,7.099485 -6.123575,12.537717 -13.020979,14.281487 -1.132387,0.286281 -1.674331,0.342873 -3.653913,0.38133 -2.691545,0.05232 -3.779008,-0.09417 -5.856653,-0.789395 C 15.585704,41.722735 11.27833,36.863469 9.9733435,30.697039 9.6026132,28.945228 9.570858,25.906834 9.9057571,24.226524 c 0.7332249,-3.678892 2.2119199,-6.477667 4.7910979,-9.068959 2.598868,-2.611081 5.328952,-4.080187 8.981447,-4.832964 0.966102,-0.199116 2.239367,-0.295721 3.484181,-0.285998 z" />
    <path
       style="fill:#2e79bd;fill-opacity:1;stroke-width:1"
       d="m 25.643638,40.923091 c -3.085449,-0.298301 -6.096902,-1.699075 -8.27879,-3.850873 -1.293064,-1.27523 -1.308985,-1.309471 -1.171196,-2.519162 0.169765,-1.490432 0.475173,-1.891939 1.974978,-2.59642 0.651127,-0.305841 1.997374,-0.853401 2.991658,-1.216792 0.994284,-0.363395 2.098327,-0.767117 2.453428,-0.89716 l 0.64564,-0.236443 0.03908,-0.740374 c 0.03795,-0.719004 0.02251,-0.758081 -0.534979,-1.354078 -0.627516,-0.670863 -0.950033,-1.217085 -1.185962,-2.008568 -0.131071,-0.439711 -0.221817,-0.531082 -0.621267,-0.625553 -0.55533,-0.131331 -1.18077,-0.791037 -1.357799,-1.432189 -0.158618,-0.57446 0.0037,-1.300539 0.380262,-1.701413 0.26759,-0.284835 0.292694,-0.4371 0.301321,-1.82759 0.0085,-1.369325 0.04352,-1.589661 0.360059,-2.265229 0.662644,-1.414229 2.27179,-2.686848 3.860441,-3.053095 0.797591,-0.183874 2.257752,-0.165094 3.02007,0.03885 1.674258,0.447906 3.017583,1.538997 3.719768,3.021322 0.391915,0.827339 0.412323,0.946579 0.412323,2.409167 0,1.129793 0.04362,1.553297 0.164126,1.593483 0.537588,0.179272 0.716693,1.622335 0.288518,2.324598 -0.277361,0.45491 -0.957963,0.933737 -1.328309,0.934513 -0.126517,2.59e-4 -0.255261,0.07312 -0.286102,0.161894 -0.456413,1.313805 -0.67618,1.729206 -1.242865,2.34925 -0.633659,0.693323 -0.642597,0.714796 -0.604241,1.451516 l 0.03893,0.747782 1.549535,0.54772 c 2.34594,0.829222 4.461737,1.687888 5.204943,2.112349 0.873008,0.498599 1.190517,1.107378 1.28326,2.460474 l 0.06898,1.006398 -0.954292,0.985933 c -1.202093,1.24195 -2.330278,2.091139 -3.658787,2.753968 -2.362568,1.178759 -4.974273,1.673078 -7.532726,1.425728 z"
       id="path859" />
  </g>
</svg>
