<?xml version="1.0" encoding="UTF-8" standalone="no"?>
<svg
   xmlns:dc="http://purl.org/dc/elements/1.1/"
   xmlns:cc="http://creativecommons.org/ns#"
   xmlns:rdf="http://www.w3.org/1999/02/22-rdf-syntax-ns#"
   xmlns:svg="http://www.w3.org/2000/svg"
   xmlns="http://www.w3.org/2000/svg"
   xmlns:xlink="http://www.w3.org/1999/xlink"
   xmlns:sodipodi="http://sodipodi.sourceforge.net/DTD/sodipodi-0.dtd"
   xmlns:inkscape="http://www.inkscape.org/namespaces/inkscape"
   id="svg2"
   viewBox="0 0 580 200"
   height="100%"
   width="100%"
   version="1.1"
   inkscape:version="0.48.3.1 r9886"
   sodipodi:docname="logout-bg.svg"
   inkscape:export-filename="/home/cpinto/Desktop/mnt/siga/siga-ng/image/default/logout-bg.png"
   inkscape:export-xdpi="90"
   inkscape:export-ydpi="90">
  <sodipodi:namedview
     pagecolor="#ffffff"
     bordercolor="#666666"
     borderopacity="1"
     objecttolerance="10"
     gridtolerance="10"
     guidetolerance="10"
     inkscape:pageopacity="1"
     inkscape:pageshadow="2"
     inkscape:window-width="1280"
     inkscape:window-height="946"
     id="namedview134"
     showgrid="false"
     inkscape:zoom="1.138976"
     inkscape:cx="234.98301"
     inkscape:cy="215.7414"
     inkscape:window-x="0"
     inkscape:window-y="24"
     inkscape:window-maximized="1"
     inkscape:current-layer="layer1" />
  <defs
     id="defs4">
    <inkscape:perspective
       sodipodi:type="inkscape:persp3d"
       inkscape:vp_x="0 : 55.66253 : 1"
       inkscape:vp_y="0 : 1000 : 0"
       inkscape:vp_z="1914 : 55.66253 : 1"
       inkscape:persp3d-origin="957 : 37.108353 : 1"
       id="perspective136" />
    <inkscape:perspective
       id="perspective3235"
       inkscape:persp3d-origin="0.5 : 0.33333333 : 1"
       inkscape:vp_z="1 : 0.5 : 1"
       inkscape:vp_y="0 : 1000 : 0"
       inkscape:vp_x="0 : 0.5 : 1"
       sodipodi:type="inkscape:persp3d" />
    <inkscape:perspective
       id="perspective3314"
       inkscape:persp3d-origin="0.5 : 0.33333333 : 1"
       inkscape:vp_z="1 : 0.5 : 1"
       inkscape:vp_y="0 : 1000 : 0"
       inkscape:vp_x="0 : 0.5 : 1"
       sodipodi:type="inkscape:persp3d" />
    <linearGradient
       gradientTransform="matrix(1.5319325,0,0,1.7070509,-51.521189,-710.0386)"
       gradientUnits="userSpaceOnUse"
       y2="1149.505"
       x2="331.42856"
       y1="152.36218"
       x1="331.42856"
       id="linearGradient2993"
       xlink:href="#linearGradient2987"
       inkscape:collect="always" />
    <linearGradient
       id="linearGradient2987">
      <stop
         id="stop2989"
         offset="0"
         style="stop-color:#333333;stop-opacity:1;" />
      <stop
         style="stop-color:#333333;stop-opacity:0.73780489;"
         offset="0.19627506"
         id="stop2995" />
      <stop
         id="stop2997"
         offset="0.61318052"
         style="stop-color:#333333;stop-opacity:0.76219511;" />
      <stop
         id="stop2991"
         offset="1"
         style="stop-color:#333333;stop-opacity:1;" />
    </linearGradient>
    <inkscape:perspective
       id="perspective3542"
       inkscape:persp3d-origin="526.18109 : 248.03149 : 1"
       inkscape:vp_z="1052.3622 : 372.04724 : 1"
       inkscape:vp_y="0 : 1000 : 0"
       inkscape:vp_x="0 : 372.04724 : 1"
       sodipodi:type="inkscape:persp3d" />
    <linearGradient
       x1="0"
       y1="0"
       x2="1"
       y2="0"
       gradientUnits="userSpaceOnUse"
       gradientTransform="matrix(107.65572,0.7153168,0.7153168,-107.65572,496.81055,425.45898)"
       spreadMethod="pad"
       id="linearGradient9415">
      <stop
         style="stop-opacity:1;stop-color:#f26c36"
         offset="0"
         id="stop9417" />
      <stop
         style="stop-opacity:1;stop-color:#f3a650"
         offset="1"
         id="stop9419" />
    </linearGradient>
    <linearGradient
       x1="0"
       y1="0"
       x2="1"
       y2="0"
       gradientUnits="userSpaceOnUse"
       gradientTransform="matrix(107.49202,0.7142334,0.7142334,-107.492,496.82324,425.41406)"
       spreadMethod="pad"
       id="linearGradient9435">
      <stop
         style="stop-opacity:1;stop-color:#f26c36"
         offset="0"
         id="stop9437" />
      <stop
         style="stop-opacity:1;stop-color:#f3a650"
         offset="1"
         id="stop9439" />
    </linearGradient>
    <linearGradient
       x1="0"
       y1="0"
       x2="1"
       y2="0"
       gradientUnits="userSpaceOnUse"
       gradientTransform="matrix(107.43213,0.7138367,0.7138367,-107.43213,496.83203,425.36914)"
       spreadMethod="pad"
       id="linearGradient9455">
      <stop
         style="stop-opacity:1;stop-color:#f26c36"
         offset="0"
         id="stop9457" />
      <stop
         style="stop-opacity:1;stop-color:#f3a650"
         offset="1"
         id="stop9459" />
    </linearGradient>
    <linearGradient
       x1="0"
       y1="0"
       x2="1"
       y2="0"
       gradientUnits="userSpaceOnUse"
       gradientTransform="matrix(107.32034,0.713089,0.713089,-107.32034,496.86816,425.32422)"
       spreadMethod="pad"
       id="linearGradient9475">
      <stop
         style="stop-opacity:1;stop-color:#f26c36"
         offset="0"
         id="stop9477" />
      <stop
         style="stop-opacity:1;stop-color:#f3a650"
         offset="1"
         id="stop9479" />
    </linearGradient>
    <linearGradient
       x1="0"
       y1="0"
       x2="1"
       y2="0"
       gradientUnits="userSpaceOnUse"
       gradientTransform="matrix(107.43213,0.7138367,0.7138367,-107.43213,496.83496,425.2793)"
       spreadMethod="pad"
       id="linearGradient9495">
      <stop
         style="stop-opacity:1;stop-color:#f26c36"
         offset="0"
         id="stop9497" />
      <stop
         style="stop-opacity:1;stop-color:#f3a650"
         offset="1"
         id="stop9499" />
    </linearGradient>
    <linearGradient
       x1="0"
       y1="0"
       x2="1"
       y2="0"
       gradientUnits="userSpaceOnUse"
       gradientTransform="matrix(107.52396,0.714447,0.714447,-107.52396,496.79297,425.23437)"
       spreadMethod="pad"
       id="linearGradient9515">
      <stop
         style="stop-opacity:1;stop-color:#f26c36"
         offset="0"
         id="stop9517" />
      <stop
         style="stop-opacity:1;stop-color:#f3a650"
         offset="1"
         id="stop9519" />
    </linearGradient>
    <linearGradient
       x1="0"
       y1="0"
       x2="1"
       y2="0"
       gradientUnits="userSpaceOnUse"
       gradientTransform="matrix(107.4361,0.7138672,0.7138672,-107.43608,496.8291,425.18848)"
       spreadMethod="pad"
       id="linearGradient9535">
      <stop
         style="stop-opacity:1;stop-color:#f26c36"
         offset="0"
         id="stop9537" />
      <stop
         style="stop-opacity:1;stop-color:#f3a650"
         offset="1"
         id="stop9539" />
    </linearGradient>
    <linearGradient
       x1="0"
       y1="0"
       x2="1"
       y2="0"
       gradientUnits="userSpaceOnUse"
       gradientTransform="matrix(107.4361,0.7138672,0.7138672,-107.43608,496.82617,425.14355)"
       spreadMethod="pad"
       id="linearGradient9555">
      <stop
         style="stop-opacity:1;stop-color:#f26c36"
         offset="0"
         id="stop9557" />
      <stop
         style="stop-opacity:1;stop-color:#f3a650"
         offset="1"
         id="stop9559" />
    </linearGradient>
    <linearGradient
       x1="0"
       y1="0"
       x2="1"
       y2="0"
       gradientUnits="userSpaceOnUse"
       gradientTransform="matrix(107.43213,0.7138367,0.7138367,-107.43213,496.8291,425.09863)"
       spreadMethod="pad"
       id="linearGradient9575">
      <stop
         style="stop-opacity:1;stop-color:#f26c36"
         offset="0"
         id="stop9577" />
      <stop
         style="stop-opacity:1;stop-color:#f3a650"
         offset="1"
         id="stop9579" />
    </linearGradient>
    <linearGradient
       x1="0"
       y1="0"
       x2="1"
       y2="0"
       gradientUnits="userSpaceOnUse"
       gradientTransform="matrix(107.43213,0.7138367,0.7138367,-107.43213,496.82617,425.05371)"
       spreadMethod="pad"
       id="linearGradient9595">
      <stop
         style="stop-opacity:1;stop-color:#f26c36"
         offset="0"
         id="stop9597" />
      <stop
         style="stop-opacity:1;stop-color:#f3a650"
         offset="1"
         id="stop9599" />
    </linearGradient>
    <linearGradient
       x1="0"
       y1="0"
       x2="1"
       y2="0"
       gradientUnits="userSpaceOnUse"
       gradientTransform="matrix(107.40825,0.7136688,0.7136688,-107.40825,496.84375,425.00879)"
       spreadMethod="pad"
       id="linearGradient9615">
      <stop
         style="stop-opacity:1;stop-color:#f26c36"
         offset="0"
         id="stop9617" />
      <stop
         style="stop-opacity:1;stop-color:#f3a650"
         offset="1"
         id="stop9619" />
    </linearGradient>
    <linearGradient
       x1="0"
       y1="0"
       x2="1"
       y2="0"
       gradientUnits="userSpaceOnUse"
       gradientTransform="matrix(107.37624,0.7134705,0.7134705,-107.37624,496.87012,424.96387)"
       spreadMethod="pad"
       id="linearGradient9635">
      <stop
         style="stop-opacity:1;stop-color:#f26c36"
         offset="0"
         id="stop9637" />
      <stop
         style="stop-opacity:1;stop-color:#f3a650"
         offset="1"
         id="stop9639" />
    </linearGradient>
    <linearGradient
       x1="0"
       y1="0"
       x2="1"
       y2="0"
       gradientUnits="userSpaceOnUse"
       gradientTransform="matrix(107.26831,0.7127533,0.7127533,-107.26831,496.96387,424.91992)"
       spreadMethod="pad"
       id="linearGradient9655">
      <stop
         style="stop-opacity:1;stop-color:#f26c36"
         offset="0"
         id="stop9657" />
      <stop
         style="stop-opacity:1;stop-color:#f3a650"
         offset="1"
         id="stop9659" />
    </linearGradient>
    <linearGradient
       x1="0"
       y1="0"
       x2="1"
       y2="0"
       gradientUnits="userSpaceOnUse"
       gradientTransform="matrix(107.37231,0.7134399,0.7134399,-107.37231,496.87891,424.875)"
       spreadMethod="pad"
       id="linearGradient9675">
      <stop
         style="stop-opacity:1;stop-color:#f26c36"
         offset="0"
         id="stop9677" />
      <stop
         style="stop-opacity:1;stop-color:#f3a650"
         offset="1"
         id="stop9679" />
    </linearGradient>
    <clipPath
       clipPathUnits="userSpaceOnUse"
       id="clipPath9759">
      <path
         d="m 463.764,435.777 1.994,0 0,-1.346 -1.994,0 0,1.346 z"
         id="path9761"
         inkscape:connector-curvature="0" />
    </clipPath>
    <clipPath
       clipPathUnits="userSpaceOnUse"
       id="clipPath9763">
      <path
         d="m 463.764,434.431 1.994,0 0,1.347 -1.994,0 0,-1.347 z"
         id="path9765"
         inkscape:connector-curvature="0" />
    </clipPath>
    <clipPath
       clipPathUnits="userSpaceOnUse"
       id="clipPath9783">
      <path
         d="m 463.764,435.777 1.994,0 0,-1.346 -1.994,0 0,1.346 z"
         id="path9785"
         inkscape:connector-curvature="0" />
    </clipPath>
    <clipPath
       clipPathUnits="userSpaceOnUse"
       id="clipPath9787">
      <path
         d="m 463.764,434.431 1.994,0 0,1.347 -1.994,0 0,-1.347 z"
         id="path9789"
         inkscape:connector-curvature="0" />
    </clipPath>
    <clipPath
       clipPathUnits="userSpaceOnUse"
       id="clipPath9807">
      <path
         d="m 463.764,435.777 1.994,0 0,-1.346 -1.994,0 0,1.346 z"
         id="path9809"
         inkscape:connector-curvature="0" />
    </clipPath>
    <clipPath
       clipPathUnits="userSpaceOnUse"
       id="clipPath9811">
      <path
         d="m 463.764,434.431 1.994,0 0,1.347 -1.994,0 0,-1.347 z"
         id="path9813"
         inkscape:connector-curvature="0" />
    </clipPath>
    <clipPath
       clipPathUnits="userSpaceOnUse"
       id="clipPath9855">
      <path
         d="m 463.361,434.64 1.082,0 0,-0.821 -1.082,0 0,0.821 z"
         id="path9857"
         inkscape:connector-curvature="0" />
    </clipPath>
    <clipPath
       clipPathUnits="userSpaceOnUse"
       id="clipPath9859">
      <path
         d="m 463.361,433.819 1.082,0 0,0.82 -1.082,0 0,-0.82 z"
         id="path9861"
         inkscape:connector-curvature="0" />
    </clipPath>
    <clipPath
       clipPathUnits="userSpaceOnUse"
       id="clipPath9879">
      <path
         d="m 463.361,434.64 1.082,0 0,-0.821 -1.082,0 0,0.821 z"
         id="path9881"
         inkscape:connector-curvature="0" />
    </clipPath>
    <clipPath
       clipPathUnits="userSpaceOnUse"
       id="clipPath9883">
      <path
         d="m 463.361,433.819 1.082,0 0,0.82 -1.082,0 0,-0.82 z"
         id="path9885"
         inkscape:connector-curvature="0" />
    </clipPath>
    <clipPath
       clipPathUnits="userSpaceOnUse"
       id="clipPath9903">
      <path
         d="m 463.361,434.64 1.082,0 0,-0.821 -1.082,0 0,0.821 z"
         id="path9905"
         inkscape:connector-curvature="0" />
    </clipPath>
    <clipPath
       clipPathUnits="userSpaceOnUse"
       id="clipPath9907">
      <path
         d="m 463.361,433.819 1.082,0 0,0.82 -1.082,0 0,-0.82 z"
         id="path9909"
         inkscape:connector-curvature="0" />
    </clipPath>
    <clipPath
       clipPathUnits="userSpaceOnUse"
       id="clipPath9927">
      <path
         d="m 463.361,434.64 1.082,0 0,-0.821 -1.082,0 0,0.821 z"
         id="path9929"
         inkscape:connector-curvature="0" />
    </clipPath>
    <clipPath
       clipPathUnits="userSpaceOnUse"
       id="clipPath9931">
      <path
         d="m 463.361,433.819 1.082,0 0,0.82 -1.082,0 0,-0.82 z"
         id="path9933"
         inkscape:connector-curvature="0" />
    </clipPath>
    <clipPath
       clipPathUnits="userSpaceOnUse"
       id="clipPath9955">
      <path
         d="m 463.225,434.787 0.539,0 0,-0.32 -0.539,0 0,0.32 z"
         id="path9957"
         inkscape:connector-curvature="0" />
    </clipPath>
    <clipPath
       clipPathUnits="userSpaceOnUse"
       id="clipPath9959">
      <path
         d="m 463.225,434.467 0.539,0 0,0.32 -0.539,0 0,-0.32 z"
         id="path9961"
         inkscape:connector-curvature="0" />
    </clipPath>
    <clipPath
       clipPathUnits="userSpaceOnUse"
       id="clipPath9979">
      <path
         d="m 463.225,434.787 0.539,0 0,-0.32 -0.539,0 0,0.32 z"
         id="path9981"
         inkscape:connector-curvature="0" />
    </clipPath>
    <clipPath
       clipPathUnits="userSpaceOnUse"
       id="clipPath9983">
      <path
         d="m 463.225,434.467 0.539,0 0,0.32 -0.539,0 0,-0.32 z"
         id="path9985"
         inkscape:connector-curvature="0" />
    </clipPath>
    <clipPath
       clipPathUnits="userSpaceOnUse"
       id="clipPath10003">
      <path
         d="m 463.225,434.787 0.539,0 0,-0.32 -0.539,0 0,0.32 z"
         id="path10005"
         inkscape:connector-curvature="0" />
    </clipPath>
    <clipPath
       clipPathUnits="userSpaceOnUse"
       id="clipPath10007">
      <path
         d="m 463.225,434.467 0.539,0 0,0.32 -0.539,0 0,-0.32 z"
         id="path10009"
         inkscape:connector-curvature="0" />
    </clipPath>
    <clipPath
       clipPathUnits="userSpaceOnUse"
       id="clipPath10027">
      <path
         d="m 463.225,434.787 0.539,0 0,-0.32 -0.539,0 0,0.32 z"
         id="path10029"
         inkscape:connector-curvature="0" />
    </clipPath>
    <clipPath
       clipPathUnits="userSpaceOnUse"
       id="clipPath10031">
      <path
         d="m 463.225,434.467 0.539,0 0,0.32 -0.539,0 0,-0.32 z"
         id="path10033"
         inkscape:connector-curvature="0" />
    </clipPath>
    <clipPath
       clipPathUnits="userSpaceOnUse"
       id="clipPath10051">
      <path
         d="m 463.225,434.787 0.539,0 0,-0.32 -0.539,0 0,0.32 z"
         id="path10053"
         inkscape:connector-curvature="0" />
    </clipPath>
    <clipPath
       clipPathUnits="userSpaceOnUse"
       id="clipPath10055">
      <path
         d="m 463.225,434.467 0.539,0 0,0.32 -0.539,0 0,-0.32 z"
         id="path10057"
         inkscape:connector-curvature="0" />
    </clipPath>
    <clipPath
       clipPathUnits="userSpaceOnUse"
       id="clipPath10083">
      <path
         d="m 472.446,424.986 2.116,0 0,-0.065 -2.116,0 0,0.065 z"
         id="path10085"
         inkscape:connector-curvature="0" />
    </clipPath>
    <clipPath
       clipPathUnits="userSpaceOnUse"
       id="clipPath10087">
      <path
         d="m 472.446,424.921 2.115,0 0,0.065 -2.115,0 0,-0.065 z"
         id="path10089"
         inkscape:connector-curvature="0" />
    </clipPath>
    <clipPath
       clipPathUnits="userSpaceOnUse"
       id="clipPath10123">
      <path
         d="m 460.481,430.255 11.965,0 0,-5.269 -11.965,0 0,5.269 z"
         id="path10125"
         inkscape:connector-curvature="0" />
    </clipPath>
    <clipPath
       clipPathUnits="userSpaceOnUse"
       id="clipPath10127">
      <path
         d="m 460.481,424.986 11.965,0 0,5.269 -11.965,0 0,-5.269 z"
         id="path10129"
         inkscape:connector-curvature="0" />
    </clipPath>
    <clipPath
       clipPathUnits="userSpaceOnUse"
       id="clipPath10147">
      <path
         d="m 460.989,432.73 1.786,0 0,-1.773 -1.786,0 0,1.773 z"
         id="path10149"
         inkscape:connector-curvature="0" />
    </clipPath>
    <clipPath
       clipPathUnits="userSpaceOnUse"
       id="clipPath10151">
      <path
         d="m 460.989,430.957 1.786,0 0,1.773 -1.786,0 0,-1.773 z"
         id="path10153"
         inkscape:connector-curvature="0" />
    </clipPath>
    <clipPath
       clipPathUnits="userSpaceOnUse"
       id="clipPath10171">
      <path
         d="m 460.989,432.73 1.786,0 0,-1.773 -1.786,0 0,1.773 z"
         id="path10173"
         inkscape:connector-curvature="0" />
    </clipPath>
    <clipPath
       clipPathUnits="userSpaceOnUse"
       id="clipPath10175">
      <path
         d="m 460.989,430.957 1.786,0 0,1.773 -1.786,0 0,-1.773 z"
         id="path10177"
         inkscape:connector-curvature="0" />
    </clipPath>
    <clipPath
       clipPathUnits="userSpaceOnUse"
       id="clipPath10195">
      <path
         d="m 460.989,432.73 1.786,0 0,-1.773 -1.786,0 0,1.773 z"
         id="path10197"
         inkscape:connector-curvature="0" />
    </clipPath>
    <clipPath
       clipPathUnits="userSpaceOnUse"
       id="clipPath10199">
      <path
         d="m 460.989,430.957 1.786,0 0,1.773 -1.786,0 0,-1.773 z"
         id="path10201"
         inkscape:connector-curvature="0" />
    </clipPath>
    <clipPath
       clipPathUnits="userSpaceOnUse"
       id="clipPath10219">
      <path
         d="m 462.775,430.957 0.84,0 0,-0.702 -0.84,0 0,0.702 z"
         id="path10221"
         inkscape:connector-curvature="0" />
    </clipPath>
    <clipPath
       clipPathUnits="userSpaceOnUse"
       id="clipPath10223">
      <path
         d="m 462.775,430.255 0.84,0 0,0.702 -0.84,0 0,-0.702 z"
         id="path10225"
         inkscape:connector-curvature="0" />
    </clipPath>
    <clipPath
       clipPathUnits="userSpaceOnUse"
       id="clipPath10243">
      <path
         d="m 462.775,430.957 0.84,0 0,-0.702 -0.84,0 0,0.702 z"
         id="path10245"
         inkscape:connector-curvature="0" />
    </clipPath>
    <clipPath
       clipPathUnits="userSpaceOnUse"
       id="clipPath10247">
      <path
         d="m 462.775,430.255 0.84,0 0,0.702 -0.84,0 0,-0.702 z"
         id="path10249"
         inkscape:connector-curvature="0" />
    </clipPath>
    <clipPath
       clipPathUnits="userSpaceOnUse"
       id="clipPath10267">
      <path
         d="m 462.775,430.957 0.84,0 0,-0.702 -0.84,0 0,0.702 z"
         id="path10269"
         inkscape:connector-curvature="0" />
    </clipPath>
    <clipPath
       clipPathUnits="userSpaceOnUse"
       id="clipPath10271">
      <path
         d="m 462.775,430.255 0.84,0 0,0.702 -0.84,0 0,-0.702 z"
         id="path10273"
         inkscape:connector-curvature="0" />
    </clipPath>
    <clipPath
       clipPathUnits="userSpaceOnUse"
       id="clipPath10291">
      <path
         d="m 463.615,431.51 4.74,0 0,-2.588 -4.74,0 0,2.588 z"
         id="path10293"
         inkscape:connector-curvature="0" />
    </clipPath>
    <clipPath
       clipPathUnits="userSpaceOnUse"
       id="clipPath10295">
      <path
         d="m 463.615,428.922 4.74,0 0,2.588 -4.74,0 0,-2.588 z"
         id="path10297"
         inkscape:connector-curvature="0" />
    </clipPath>
  </defs>
  <metadata
     id="metadata7">
    <rdf:RDF>
      <cc:Work
         rdf:about="">
        <dc:format>image/svg+xml</dc:format>
        <dc:type
           rdf:resource="http://purl.org/dc/dcmitype/StillImage" />
        <dc:title></dc:title>
      </cc:Work>
    </rdf:RDF>
  </metadata>
  <g
     id="layer1"
     transform="matrix(0.99595491,0,0,0.91428571,524.40642,-212.47637)">
    <g
       id="g3249"
       transform="matrix(1.0327442,0,0,1.0327442,26.394992,126.33811)">
      <g
         style="font-size:26px;font-style:normal;font-weight:bold;fill:#4d4d4d;font-family:arial"
         font-style="normal"
         font-weight="bold"
         transform="matrix(0.44368321,0,0,0.47997206,-910.44162,83.292543)"
         font-size="26px"
         id="flowRoot2915">
        <path
           style="fill:#666666"
           d="m 1028.6,107.85 0,-3.3594 12.129,-0.0195 0,10.625 c -1.862,1.4844 -3.7825,2.6042 -5.7617,3.3594 -1.9792,0.74218 -4.0104,1.1133 -6.0937,1.1133 -2.8126,0 -5.3711,-0.59896 -7.6758,-1.7969 -2.2917,-1.2109 -4.0235,-2.9557 -5.1953,-5.2344 -1.1719,-2.2786 -1.7578,-4.8242 -1.7578,-7.6367 0,-2.7864 0.5794,-5.3841 1.7382,-7.793 1.1719,-2.4219 2.8516,-4.2187 5.0391,-5.3906 2.1875,-1.1718 4.707,-1.7578 7.5586,-1.7578 2.0703,2.9e-5 3.9388,0.33857 5.6055,1.0156 1.6796,0.66409 2.9947,1.5951 3.9453,2.793 0.9505,1.1979 1.6731,2.7604 2.1679,4.6875 l -3.4179,0.9375 c -0.4297,-1.4583 -0.9636,-2.6041 -1.6016,-3.4375 -0.638,-0.83331 -1.5495,-1.4974 -2.7344,-1.9922 -1.1849,-0.50779 -2.5,-0.76169 -3.9453,-0.76172 -1.7318,2.6e-5 -3.2292,0.26695 -4.4922,0.80078 -1.263,0.52086 -2.2851,1.211 -3.0664,2.0703 -0.7682,0.8594 -1.3672,1.8034 -1.7968,2.832 -0.7292,1.7709 -1.0938,3.6914 -1.0938,5.7617 0,2.5521 0.4362,4.6875 1.3086,6.4062 0.8854,1.7188 2.168,2.9948 3.8477,3.8281 1.6796,0.83334 3.4635,1.25 5.3515,1.25 1.6406,0 3.2422,-0.3125 4.8047,-0.9375 1.5625,-0.63802 2.7474,-1.3151 3.5547,-2.0312 v -5.332 h -8.418"
           id="path3348"
           inkscape:connector-curvature="0" />
        <path
           style="fill:#666666"
           d="m 1044.6,108.71 c 0,-3.8411 1.0677,-6.6862 3.2032,-8.5352 1.7838,-1.5364 3.9583,-2.3047 6.5234,-2.3047 2.8515,2.1e-5 5.1823,0.93752 6.9922,2.8125 1.8099,1.862 2.7148,4.4401 2.7148,7.7344 0,2.6693 -0.4036,4.7722 -1.2109,6.3086 -0.7943,1.5234 -1.9597,2.7083 -3.4961,3.5547 -1.5235,0.84635 -3.1901,1.2695 -5,1.2695 -2.9037,0 -5.2539,-0.93099 -7.0508,-2.793 -1.7839,-1.862 -2.6758,-4.5443 -2.6758,-8.0469 m 3.6133,0 c 0,2.6563 0.5794,4.6484 1.7383,5.9766 1.1588,1.3151 2.6172,1.9726 4.375,1.9726 1.7448,0 3.1966,-0.66406 4.3555,-1.9922 1.1588,-1.3281 1.7382,-3.3528 1.7382,-6.0742 0,-2.5651 -0.5859,-4.5052 -1.7578,-5.8203 -1.1588,-1.3281 -2.6042,-1.9922 -4.3359,-1.9922 -1.7578,1e-5 -3.2162,0.65757 -4.375,1.9726 -1.1589,1.3151 -1.7383,3.3008 -1.7383,5.957"
           id="path3350"
           inkscape:connector-curvature="0" />
        <path
           style="fill:#666666"
           d="m 1071.4,119.08 -3.2617,0 0,-28.633 3.5156,0 0,10.215 c 1.4844,-1.862 3.3789,-2.7929 5.6836,-2.793 1.2761,2.1e-5 2.4805,0.26044 3.6133,0.78125 1.1458,0.50783 2.0833,1.2305 2.8125,2.168 0.7422,0.9245 1.3216,2.0443 1.7383,3.3594 0.4166,1.3151 0.625,2.7214 0.625,4.2188 0,3.5547 -0.8789,6.3021 -2.6367,8.2422 -1.7579,1.9401 -3.8672,2.9102 -6.3281,2.9102 -2.448,0 -4.3685,-1.0221 -5.7618,-3.0664 v 2.5977 m -0.039,-10.527 c 0,2.487 0.3385,4.2839 1.0156,5.3906 1.1068,1.8099 2.6042,2.7148 4.4922,2.7148 1.5364,0 2.8646,-0.66406 3.9844,-1.9922 1.1197,-1.3411 1.6796,-3.3333 1.6796,-5.9766 0,-2.7083 -0.5403,-4.707 -1.621,-5.9961 -1.0678,-1.289 -2.3633,-1.9336 -3.8868,-1.9336 -1.5364,2e-5 -2.8646,0.6706 -3.9843,2.0117 -1.1198,1.3281 -1.6797,3.2552 -1.6797,5.7812"
           id="path3352"
           inkscape:connector-curvature="0" />
        <path
           style="fill:#666666"
           d="m 1090.4,94.492 0,-4.043 3.5156,0 0,4.043 -3.5156,0 m 0,24.59 0,-20.742 3.5156,0 0,20.742 -3.5156,0"
           id="path3354"
           inkscape:connector-curvature="0" />
        <path
           style="fill:#666666"
           d="m 1113.5,112.4 3.6329,0.44922 c -0.573,2.1224 -1.6342,3.7695 -3.1836,4.9414 -1.5495,1.1719 -3.5287,1.7578 -5.9375,1.7578 -3.0339,0 -5.4428,-0.93099 -7.2266,-2.793 -1.7708,-1.875 -2.6563,-4.4987 -2.6563,-7.8711 0,-3.4896 0.8985,-6.1979 2.6954,-8.125 1.7968,-1.9271 4.1276,-2.8906 6.9921,-2.8906 2.7735,2.1e-5 5.0391,0.94403 6.7969,2.832 1.7578,1.88797 2.6367,4.5443 2.6367,7.9688 0,0.20834 -0.01,0.52084 -0.02,0.9375 h -15.469 c 0.1302,2.2786 0.7747,4.0234 1.9336,5.2344 1.1588,1.2109 2.6041,1.8164 4.3359,1.8164 1.289,0 2.3893,-0.33854 3.3008,-1.0156 0.9114,-0.67708 1.6341,-1.7578 2.1679,-3.2422 m -11.543,-5.6836 11.582,0 c -0.1563,-1.7448 -0.599,-3.0534 -1.3281,-3.9258 -1.1198,-1.3541 -2.5717,-2.0312 -4.3555,-2.0312 -1.6146,2e-5 -2.9753,0.54039 -4.082,1.6211 -1.0938,1.0807 -1.6992,2.526 -1.8164,4.3359"
           id="path3356"
           inkscape:connector-curvature="0" />
        <path
           style="fill:#666666"
           d="m 1121.6,119.08 0,-20.742 3.164,0 0,3.1445 c 0.8073,-1.4713 1.5495,-2.4414 2.2266,-2.9102 0.6901,-0.46873 1.4453,-0.7031 2.2656,-0.70312 1.1849,2.1e-5 2.3893,0.37762 3.6133,1.1328 l -1.2109,3.2617 c -0.8594,-0.50779 -1.7188,-0.7617 -2.5781,-0.76172 -0.7683,2e-5 -1.4584,0.23439 -2.0704,0.70313 -0.6119,0.45574 -1.0481,1.0938 -1.3086,1.9141 -0.3906,1.25 -0.5859,2.6172 -0.5859,4.1016 v 10.859 h -3.5"
           id="path3358"
           inkscape:connector-curvature="0" />
        <path
           style="fill:#666666"
           d="m 1134.9,119.08 0,-20.742 3.1641,0 0,2.9492 c 1.5234,-2.2786 3.7239,-3.4179 6.6015,-3.418 1.25,2.1e-5 2.3959,0.22788 3.4375,0.68359 1.0547,0.44273 1.8425,1.0287 2.3633,1.7578 0.5208,0.72918 0.8854,1.5951 1.0938,2.5976 0.1302,0.65106 0.1953,1.7904 0.1953,3.418 v 12.754 h -3.5156 v -12.617 c -10e-5,-1.4323 -0.1368,-2.5 -0.4102,-3.2031 -0.2734,-0.71612 -0.7617,-1.2825 -1.4648,-1.6992 -0.6902,-0.42967 -1.504,-0.64452 -2.4414,-0.64454 -1.4974,2e-5 -2.793,0.47528 -3.8868,1.4258 -1.0807,0.95053 -1.6211,2.7539 -1.6211,5.4102 v 11.328 h -3.6"
           id="path3360"
           inkscape:connector-curvature="0" />
        <path
           style="fill:#666666"
           d="m 1155.9,108.71 c -1e-4,-3.8411 1.0677,-6.6862 3.2031,-8.5352 1.7838,-1.5364 3.9583,-2.3047 6.5234,-2.3047 2.8516,2.1e-5 5.1823,0.93752 6.9922,2.8125 1.8099,1.862 2.7148,4.4401 2.7148,7.7344 0,2.6693 -0.4036,4.7722 -1.2109,6.3086 -0.7943,1.5234 -1.9596,2.7083 -3.4961,3.5547 -1.5234,0.84635 -3.1901,1.2695 -5,1.2695 -2.9036,0 -5.2539,-0.93099 -7.0508,-2.793 -1.7838,-1.862 -2.6758,-4.5443 -2.6757,-8.0469 m 3.6132,0 c 0,2.6563 0.5795,4.6484 1.7383,5.9766 1.1589,1.3151 2.6172,1.9726 4.375,1.9726 1.7448,0 3.1966,-0.66406 4.3555,-1.9922 1.1588,-1.3281 1.7382,-3.3528 1.7383,-6.0742 -10e-5,-2.5651 -0.586,-4.5052 -1.7578,-5.8203 -1.1589,-1.3281 -2.6042,-1.9922 -4.336,-1.9922 -1.7578,1e-5 -3.2161,0.65757 -4.375,1.9726 -1.1588,1.3151 -1.7383,3.3008 -1.7383,5.957"
           id="path3362"
           inkscape:connector-curvature="0" />
        <g
           transform="translate(-176.30637,33.630075)"
           id="g3200">
          <path
             id="path3364"
             d="m 1190.9,90.449 11.445,0 c 2.2656,2.8e-5 3.9518,0.09768 5.0586,0.29297 1.1198,0.18232 2.1159,0.57294 2.9883,1.1719 0.8854,0.59898 1.621,1.3998 2.207,2.4023 0.5859,0.98961 0.8789,2.1029 0.8789,3.3398 0,1.3412 -0.3646,2.5716 -1.0937,3.6914 -0.7162,1.1198 -1.6928,1.9596 -2.9297,2.5195 1.7447,0.50783 3.0859,1.3737 4.0234,2.5977 0.9375,1.224 1.4062,2.6628 1.4063,4.3164 -10e-5,1.3021 -0.3061,2.5716 -0.918,3.8086 -0.599,1.224 -1.4258,2.207 -2.4805,2.9492 -1.0417,0.72917 -2.3307,1.1784 -3.8672,1.3476 -0.9635,0.10417 -3.2877,0.16928 -6.9726,0.19532 h -9.7461 v -28.633 m 5.7812,4.7656 0,6.6211 3.7891,0 c 2.2526,2e-5 3.6523,-0.0325 4.1992,-0.0977 0.9896,-0.11717 1.7643,-0.45571 2.3242,-1.0156 0.5729,-0.5729 0.8594,-1.3216 0.8594,-2.2461 0,-0.8854 -0.2474,-1.6015 -0.7422,-2.1484 -0.4818,-0.55987 -1.2044,-0.89841 -2.1679,-1.0156 -0.573,-0.06508 -2.2201,-0.09763 -4.9414,-0.09766 h -3.3204 m 0,11.387 0,7.6562 5.3516,0 c 2.0833,0 3.4049,-0.0586 3.9648,-0.17578 0.8594,-0.15625 1.556,-0.53385 2.0899,-1.1328 0.5468,-0.61197 0.8203,-1.4258 0.8203,-2.4414 0,-0.85937 -0.2084,-1.5885 -0.625,-2.1875 -0.4167,-0.59895 -1.0222,-1.0352 -1.8164,-1.3086 -0.7813,-0.27342 -2.487,-0.41014 -5.1172,-0.41015 h -4.668"
             inkscape:connector-curvature="0" />
          <path
             id="path3366"
             d="m 1218.4,108.42 c 0,-1.8229 0.4492,-3.5872 1.3477,-5.293 0.8984,-1.7057 2.1679,-3.0078 3.8086,-3.9063 1.6536,-0.89842 3.496,-1.3476 5.5273,-1.3477 3.138,2.1e-5 5.7096,1.0222 7.7149,3.0664 2.0051,2.0313 3.0077,4.6029 3.0078,7.7148 -10e-5,3.138 -1.0157,5.7422 -3.0469,7.8125 -2.0183,2.0573 -4.5638,3.0859 -7.6367,3.0859 -1.9011,0 -3.7175,-0.42969 -5.4492,-1.2891 -1.7188,-0.85937 -3.0274,-2.1159 -3.9258,-3.7695 -0.8985,-1.6667 -1.3477,-3.6914 -1.3477,-6.0742 m 5.625,0.29297 c 0,2.0573 0.4883,3.6328 1.4649,4.7266 0.9765,1.0938 2.1809,1.6406 3.6132,1.6406 1.4323,1e-5 2.6302,-0.54687 3.5938,-1.6406 0.9765,-1.0938 1.4648,-2.6823 1.4648,-4.7656 0,-2.0312 -0.4883,-3.5937 -1.4648,-4.6875 -0.9636,-1.0937 -2.1615,-1.6406 -3.5938,-1.6406 -1.4323,1e-5 -2.6367,0.54689 -3.6132,1.6406 -0.9766,1.0938 -1.4649,2.6693 -1.4649,4.7266"
             inkscape:connector-curvature="0" />
          <path
             id="path3368"
             d="m 1244.2,119.08 0,-28.633 5.4883,0 0,28.633 -5.4883,0"
             inkscape:connector-curvature="0" />
          <path
             id="path3370"
             d="m 1255.3,95.527 0,-5.0781 5.4883,0 0,5.0781 -5.4883,0 m 0,23.555 0,-20.742 5.4883,0 0,20.742 -5.4883,0"
             inkscape:connector-curvature="0" />
          <path
             id="path3372"
             d="m 1272.1,119.08 -8.3594,-20.742 5.7617,0 3.9063,10.586 1.1328,3.5352 c 0.2995,-0.89843 0.4883,-1.4909 0.5664,-1.7773 0.1823,-0.58593 0.3776,-1.1719 0.5859,-1.7578 l 3.9454,-10.586 h 5.6445 l -8.2422,20.742 h -4.9"
             inkscape:connector-curvature="0" />
          <path
             id="path3374"
             d="m 1292.8,104.67 -4.9805,-0.89843 c 0.5599,-2.0052 1.5234,-3.4896 2.8906,-4.4531 1.3672,-0.96352 3.3985,-1.4453 6.0938,-1.4453 2.4479,2.1e-5 4.2708,0.29299 5.4687,0.87891 1.1979,0.57294 2.0378,1.3086 2.5196,2.207 0.4947,0.88543 0.7421,2.5195 0.7422,4.9023 l -0.059,6.4062 c -10e-5,1.8229 0.085,3.1706 0.2539,4.043 0.1822,0.85938 0.5143,1.7838 0.9961,2.7734 h -5.4297 c -0.1433,-0.36459 -0.3191,-0.90495 -0.5274,-1.6211 -0.091,-0.32552 -0.1562,-0.54036 -0.1953,-0.64453 -0.9375,0.91146 -1.9401,1.5951 -3.0078,2.0508 -1.0677,0.45573 -2.207,0.6836 -3.418,0.6836 -2.1354,0 -3.8216,-0.57943 -5.0586,-1.7383 -1.2239,-1.1589 -1.8359,-2.6237 -1.8359,-4.3945 0,-1.1719 0.28,-2.2135 0.8399,-3.125 0.5598,-0.92446 1.3411,-1.6276 2.3437,-2.1094 1.0156,-0.49478 2.474,-0.92447 4.375,-1.2891 2.5651,-0.48176 4.3424,-0.93098 5.332,-1.3477 v -0.54687 c 0,-1.0547 -0.2604,-1.8034 -0.7812,-2.2461 -0.5209,-0.45571 -1.5039,-0.68357 -2.9492,-0.68359 -0.9766,2e-5 -1.7383,0.19533 -2.2852,0.58594 -0.5469,0.37762 -0.9896,1.0482 -1.3281,2.0117 m 7.3437,4.4531 c -0.7031,0.23438 -1.8164,0.51433 -3.3398,0.83984 -1.5235,0.32553 -2.5196,0.64454 -2.9883,0.95703 -0.7161,0.50782 -1.0742,1.1524 -1.0742,1.9336 0,0.76823 0.2864,1.4323 0.8594,1.9922 0.5729,0.5599 1.302,0.83984 2.1875,0.83984 0.9895,0 1.9335,-0.32552 2.832,-0.97656 0.664,-0.49479 1.1002,-1.1003 1.3086,-1.8164 0.1432,-0.46874 0.2148,-1.3607 0.2148,-2.6758 v -1.0938"
             inkscape:connector-curvature="0" />
          <path
             id="path3376"
             d="m 1316.2,119.08 -5.4883,0 0,-20.742 5.0976,0 0,2.9492 c 0.8724,-1.3932 1.6537,-2.3112 2.3438,-2.7539 0.7031,-0.44269 1.4974,-0.66404 2.3828,-0.66406 1.25,2.1e-5 2.4544,0.34507 3.6133,1.0352 l -1.6992,4.7852 c -0.9245,-0.59894 -1.7839,-0.89842 -2.5782,-0.89844 -0.7682,2e-5 -1.4193,0.21486 -1.9531,0.64454 -0.5339,0.41668 -0.957,1.1784 -1.2695,2.2852 -0.2995,1.1068 -0.4493,3.4245 -0.4492,6.9531 v 6.4062"
             inkscape:connector-curvature="0" />
          <path
             id="path3378"
             d="m 1326.5,95.527 0,-5.0781 5.4883,0 0,5.0781 -5.4883,0 m 0,23.555 0,-20.742 5.4883,0 0,20.742 -5.4883,0"
             inkscape:connector-curvature="0" />
          <path
             id="path3380"
             d="m 1341.7,104.67 -4.9804,-0.89843 c 0.5599,-2.0052 1.5234,-3.4896 2.8906,-4.4531 1.3672,-0.96352 3.3984,-1.4453 6.0937,-1.4453 2.4479,2.1e-5 4.2709,0.29299 5.4688,0.87891 1.1979,0.57294 2.0377,1.3086 2.5195,2.207 0.4948,0.88543 0.7422,2.5195 0.7422,4.9023 l -0.059,6.4062 c 0,1.8229 0.085,3.1706 0.2539,4.043 0.1823,0.85938 0.5143,1.7838 0.9961,2.7734 h -5.4297 c -0.1432,-0.36459 -0.319,-0.90495 -0.5273,-1.6211 -0.091,-0.32552 -0.1563,-0.54036 -0.1953,-0.64453 -0.9375,0.91146 -1.9401,1.5951 -3.0078,2.0508 -1.0678,0.45573 -2.2071,0.6836 -3.418,0.6836 -2.1354,0 -3.8216,-0.57943 -5.0586,-1.7383 -1.224,-1.1589 -1.8359,-2.6237 -1.8359,-4.3945 0,-1.1719 0.2799,-2.2135 0.8398,-3.125 0.5599,-0.92446 1.3411,-1.6276 2.3438,-2.1094 1.0156,-0.49478 2.4739,-0.92447 4.375,-1.2891 2.565,-0.48176 4.3424,-0.93098 5.332,-1.3477 v -0.54687 c 0,-1.0547 -0.2604,-1.8034 -0.7813,-2.2461 -0.5208,-0.45571 -1.5039,-0.68357 -2.9492,-0.68359 -0.9766,2e-5 -1.7383,0.19533 -2.2851,0.58594 -0.5469,0.37762 -0.9896,1.0482 -1.3282,2.0117 m 7.3438,4.4531 c -0.7032,0.23438 -1.8164,0.51433 -3.3399,0.83984 -1.5234,0.32553 -2.5195,0.64454 -2.9882,0.95703 -0.7162,0.50782 -1.0743,1.1524 -1.0743,1.9336 0,0.76823 0.2865,1.4323 0.8594,1.9922 0.5729,0.5599 1.3021,0.83984 2.1875,0.83984 0.9896,0 1.9336,-0.32552 2.832,-0.97656 0.6641,-0.49479 1.1003,-1.1003 1.3086,-1.8164 0.1433,-0.46874 0.2149,-1.3607 0.2149,-2.6758 v -1.0938"
             inkscape:connector-curvature="0" />
          <path
             id="path3382"
             d="m 1378.7,119.08 -5.4883,0 0,-10.586 c 0,-2.2396 -0.1172,-3.6849 -0.3516,-4.3359 -0.2344,-0.66404 -0.6185,-1.1784 -1.1523,-1.543 -0.5209,-0.36456 -1.1524,-0.54685 -1.8945,-0.54687 -0.9506,2e-5 -1.8034,0.26043 -2.5586,0.78125 -0.7552,0.52085 -1.2761,1.211 -1.5625,2.0703 -0.2735,0.85939 -0.4102,2.4479 -0.4102,4.7656 v 9.3945 h -5.4883 v -20.742 h 5.0977 v 3.0469 c 1.8099,-2.3437 4.0885,-3.5156 6.8359,-3.5156 1.2109,2.1e-5 2.3177,0.22138 3.3203,0.66406 1.0026,0.42971 1.7578,0.98309 2.2657,1.6602 0.5208,0.6771 0.8788,1.4453 1.0742,2.3047 0.2083,0.85939 0.3125,2.0898 0.3125,3.6914 v 12.891"
             inkscape:connector-curvature="0" />
          <path
             id="path3384"
             d="m 1383.1,108.42 c 0,-1.8229 0.4492,-3.5872 1.3476,-5.293 0.8985,-1.7057 2.168,-3.0078 3.8086,-3.9063 1.6537,-0.89842 3.4961,-1.3476 5.5274,-1.3477 3.138,2.1e-5 5.7096,1.0222 7.7148,3.0664 2.0052,2.0313 3.0078,4.6029 3.0078,7.7148 0,3.138 -1.0156,5.7422 -3.0468,7.8125 -2.0183,2.0573 -4.5639,3.0859 -7.6368,3.0859 -1.901,0 -3.7174,-0.42969 -5.4492,-1.2891 -1.7187,-0.85937 -3.0273,-2.1159 -3.9258,-3.7695 -0.8984,-1.6667 -1.3476,-3.6914 -1.3476,-6.0742 m 5.625,0.29297 c 0,2.0573 0.4883,3.6328 1.4648,4.7266 0.9766,1.0938 2.181,1.6406 3.6133,1.6406 1.4323,1e-5 2.6302,-0.54687 3.5938,-1.6406 0.9765,-1.0938 1.4648,-2.6823 1.4648,-4.7656 0,-2.0312 -0.4883,-3.5937 -1.4648,-4.6875 -0.9636,-1.0937 -2.1615,-1.6406 -3.5938,-1.6406 -1.4323,1e-5 -2.6367,0.54689 -3.6133,1.6406 -0.9765,1.0938 -1.4648,2.6693 -1.4648,4.7266"
             inkscape:connector-curvature="0" />
        </g>
      </g>
      <g
         transform="translate(22.483307,16.509739)"
         id="g3213">
        <g
           id="flowRoot2927"
           font-size="26px"
           transform="matrix(0.45050913,0,0,0.47997206,-939.90857,98.95012)"
           font-weight="bold"
           font-style="normal"
           style="font-size:26px;font-style:normal;font-weight:bold;fill:#666666;font-family:arial">
          <path
             id="path3387"
             d="m 1028.2,119.08 0,-2.6172 c -1.3151,2.0573 -3.2487,3.0859 -5.8008,3.0859 -1.6536,0 -3.1771,-0.45573 -4.5703,-1.3672 -1.3802,-0.91146 -2.4544,-2.181 -3.2227,-3.8086 -0.7552,-1.6406 -1.1328,-3.5221 -1.1328,-5.6445 0,-2.0703 0.3451,-3.9453 1.0352,-5.625 0.6901,-1.6927 1.7253,-2.9883 3.1055,-3.8867 1.3802,-0.89842 2.9231,-1.3476 4.6289,-1.3477 1.25,2.1e-5 2.3632,0.26695 3.3398,0.80078 0.9766,0.52085 1.7708,1.2044 2.3828,2.0508 v -10.273 h 3.4961 v 28.633 h -3.2 m -11.113,-10.352 c 0,2.6563 0.5599,4.6419 1.6797,5.957 1.1198,1.3151 2.4414,1.9726 3.9648,1.9726 1.5365,0 2.8386,-0.62499 3.9063,-1.875 1.0807,-1.263 1.6211,-3.1836 1.6211,-5.7617 0,-2.8385 -0.5469,-4.9219 -1.6406,-6.25 -1.0938,-1.3281 -2.4414,-1.9922 -4.043,-1.9922 -1.5625,1e-5 -2.8711,0.63803 -3.9258,1.9141 -1.0417,1.2761 -1.5625,3.2878 -1.5625,6.0352"
             inkscape:connector-curvature="0" />
          <path
             id="path3389"
             d="m 1051.3,112.4 3.6328,0.44922 c -0.5729,2.1224 -1.6341,3.7695 -3.1836,4.9414 -1.5495,1.1719 -3.5286,1.7578 -5.9375,1.7578 -3.0338,0 -5.4427,-0.93099 -7.2265,-2.793 -1.7709,-1.875 -2.6563,-4.4987 -2.6563,-7.8711 0,-3.4896 0.8985,-6.1979 2.6953,-8.125 1.7969,-1.9271 4.1276,-2.8906 6.9922,-2.8906 2.7734,2.1e-5 5.0391,0.94403 6.7969,2.832 1.7578,1.88797 2.6367,4.5443 2.6367,7.9688 0,0.20834 -0.01,0.52084 -0.02,0.9375 h -15.469 c 0.1302,2.2786 0.7748,4.0234 1.9336,5.2344 1.1589,1.2109 2.6042,1.8164 4.336,1.8164 1.289,0 2.3893,-0.33854 3.3007,-1.0156 0.9115,-0.67708 1.6341,-1.7578 2.168,-3.2422 m -11.543,-5.6836 11.582,0 c -0.1563,-1.7448 -0.599,-3.0534 -1.3281,-3.9258 -1.1199,-1.3541 -2.5717,-2.0312 -4.3555,-2.0312 -1.6146,2e-5 -2.9753,0.54039 -4.082,1.6211 -1.0938,1.0807 -1.6993,2.526 -1.8165,4.3359"
             inkscape:connector-curvature="0" />
          <path
             id="path3391"
             d="m 1079.1,119.08 -11.094,-28.633 4.1016,0 7.4414,20.801 c 0.5989,1.6667 1.1002,3.2292 1.5039,4.6875 0.4427,-1.5625 0.957,-3.125 1.543,-4.6875 l 7.7344,-20.801 h 3.8671 l -11.211,28.633 h -3.8867"
             inkscape:connector-curvature="0" />
          <path
             id="path3393"
             d="m 1109.1,112.4 3.6329,0.44922 c -0.573,2.1224 -1.6342,3.7695 -3.1836,4.9414 -1.5495,1.1719 -3.5287,1.7578 -5.9375,1.7578 -3.0339,0 -5.4428,-0.93099 -7.2266,-2.793 -1.7708,-1.875 -2.6563,-4.4987 -2.6563,-7.8711 0,-3.4896 0.8985,-6.1979 2.6954,-8.125 1.7968,-1.9271 4.1276,-2.8906 6.9921,-2.8906 2.7735,2.1e-5 5.0391,0.94403 6.7969,2.832 1.7578,1.88797 2.6367,4.5443 2.6367,7.9688 0,0.20834 -0.01,0.52084 -0.02,0.9375 h -15.469 c 0.1302,2.2786 0.7747,4.0234 1.9336,5.2344 1.1588,1.2109 2.6041,1.8164 4.3359,1.8164 1.289,0 2.3893,-0.33854 3.3008,-1.0156 0.9114,-0.67708 1.6341,-1.7578 2.1679,-3.2422 m -11.543,-5.6836 11.582,0 c -0.1563,-1.7448 -0.599,-3.0534 -1.3281,-3.9258 -1.1198,-1.3541 -2.5717,-2.0312 -4.3555,-2.0312 -1.6146,2e-5 -2.9753,0.54039 -4.082,1.6211 -1.0938,1.0807 -1.6992,2.526 -1.8164,4.3359"
             inkscape:connector-curvature="0" />
          <path
             id="path3395"
             d="m 1117.2,119.08 0,-20.742 3.1641,0 0,2.9492 c 1.5234,-2.2786 3.724,-3.4179 6.6016,-3.418 1.25,2.1e-5 2.3958,0.22788 3.4375,0.68359 1.0546,0.44273 1.8424,1.0287 2.3633,1.7578 0.5208,0.72918 0.8853,1.5951 1.0937,2.5976 0.1302,0.65106 0.1953,1.7904 0.1953,3.418 v 12.754 h -3.5156 v -12.617 c 0,-1.4323 -0.1367,-2.5 -0.4102,-3.2031 -0.2734,-0.71612 -0.7617,-1.2825 -1.4648,-1.6992 -0.6901,-0.42967 -1.5039,-0.64452 -2.4414,-0.64454 -1.4974,2e-5 -2.793,0.47528 -3.8867,1.4258 -1.0808,0.95053 -1.6211,2.7539 -1.6211,5.4102 v 11.328 h -3.6"
             inkscape:connector-curvature="0" />
          <path
             id="path3397"
             d="m 1153.7,112.4 3.6328,0.44922 c -0.5729,2.1224 -1.6341,3.7695 -3.1836,4.9414 -1.5495,1.1719 -3.5287,1.7578 -5.9375,1.7578 -3.0339,0 -5.4427,-0.93099 -7.2266,-2.793 -1.7708,-1.875 -2.6562,-4.4987 -2.6562,-7.8711 0,-3.4896 0.8984,-6.1979 2.6953,-8.125 1.7969,-1.9271 4.1276,-2.8906 6.9922,-2.8906 2.7734,2.1e-5 5.039,0.94403 6.7969,2.832 1.7578,1.888 2.6367,4.5443 2.6367,7.9688 0,0.20834 -0.01,0.52084 -0.019,0.9375 h -15.469 c 0.1302,2.2786 0.7747,4.0234 1.9336,5.2344 1.1588,1.2109 2.6042,1.8164 4.3359,1.8164 1.2891,0 2.3893,-0.33854 3.3008,-1.0156 0.9115,-0.67708 1.6341,-1.7578 2.168,-3.2422 m -11.543,-5.6836 11.582,0 c -0.1563,-1.7448 -0.599,-3.0534 -1.3282,-3.9258 -1.1198,-1.3541 -2.5716,-2.0312 -4.3554,-2.0312 -1.6146,2e-5 -2.9753,0.54039 -4.0821,1.6211 -1.0937,1.0807 -1.6992,2.526 -1.8164,4.3359"
             inkscape:connector-curvature="0" />
          <path
             id="path3399"
             d="m 1159.9,119.08 0,-2.8516 13.203,-15.156 c -1.4975,0.0782 -2.8191,0.11721 -3.9649,0.11719 h -8.457 v -2.8516 h 16.953 v 2.3242 l -11.23,13.164 -2.1679,2.4023 c 1.5755,-0.11718 3.0533,-0.17577 4.4336,-0.17578 h 9.5898 v 3.0274 h -18.359"
             inkscape:connector-curvature="0" />
          <path
             id="path3401"
             d="m 1195.3,119.08 0,-3.0469 c -1.6146,2.3438 -3.8086,3.5156 -6.582,3.5156 -1.224,0 -2.3698,-0.23438 -3.4375,-0.70313 -1.0547,-0.46875 -1.8424,-1.0547 -2.3633,-1.7578 -0.5078,-0.71614 -0.8659,-1.5885 -1.0742,-2.6172 -0.1432,-0.6901 -0.2148,-1.7838 -0.2148,-3.2812 v -12.852 h 3.5156 v 11.504 c 0,1.8359 0.072,3.0729 0.2148,3.7109 0.2214,0.92449 0.6901,1.6536 1.4063,2.1875 0.7161,0.52084 1.6015,0.78126 2.6562,0.78125 1.0547,1e-5 2.0443,-0.26692 2.9688,-0.80078 0.9245,-0.54687 1.5755,-1.2826 1.9531,-2.207 0.3906,-0.93749 0.5859,-2.2917 0.586,-4.0625 v -11.113 h 3.5156 v 20.742 h -3.2"
             inkscape:connector-curvature="0" />
          <path
             id="path3403"
             d="m 1218.2,112.4 3.6329,0.44922 c -0.573,2.1224 -1.6342,3.7695 -3.1836,4.9414 -1.5495,1.1719 -3.5287,1.7578 -5.9375,1.7578 -3.0339,0 -5.4428,-0.93099 -7.2266,-2.793 -1.7708,-1.875 -2.6563,-4.4987 -2.6563,-7.8711 0,-3.4896 0.8985,-6.1979 2.6954,-8.125 1.7968,-1.9271 4.1276,-2.8906 6.9921,-2.8906 2.7735,2.1e-5 5.0391,0.94403 6.7969,2.832 1.7578,1.88797 2.6367,4.5443 2.6367,7.9688 0,0.20834 -0.01,0.52084 -0.02,0.9375 h -15.469 c 0.1302,2.2786 0.7747,4.0234 1.9336,5.2344 1.1588,1.2109 2.6041,1.8164 4.3359,1.8164 1.289,0 2.3893,-0.33854 3.3008,-1.0156 0.9114,-0.67708 1.6341,-1.7578 2.1679,-3.2422 m -11.543,-5.6836 11.582,0 c -0.1563,-1.7448 -0.599,-3.0534 -1.3281,-3.9258 -1.1198,-1.3541 -2.5717,-2.0312 -4.3555,-2.0312 -1.6146,2e-5 -2.9753,0.54039 -4.082,1.6211 -1.0938,1.0807 -1.6992,2.526 -1.8164,4.3359"
             inkscape:connector-curvature="0" />
          <path
             id="path3405"
             d="m 1226.2,119.08 0,-28.633 3.5156,0 0,28.633 -3.5156,0"
             inkscape:connector-curvature="0" />
          <path
             id="path3407"
             d="m 1248.7,116.52 c -1.3021,1.1068 -2.5587,1.888 -3.7696,2.3438 -1.1979,0.45573 -2.487,0.6836 -3.8672,0.6836 -2.2786,0 -4.0299,-0.55339 -5.2539,-1.6602 -1.2239,-1.1198 -1.8359,-2.5456 -1.8359,-4.2773 0,-1.0156 0.2279,-1.9401 0.6836,-2.7734 0.4687,-0.84635 1.0742,-1.5234 1.8164,-2.0312 0.7552,-0.5078 1.6015,-0.89192 2.5391,-1.1523 0.69,-0.18228 1.7317,-0.35807 3.125,-0.52735 2.8385,-0.33853 4.9283,-0.74217 6.2695,-1.2109 0.013,-0.48175 0.02,-0.78774 0.02,-0.91796 0,-1.4323 -0.332,-2.4414 -0.9961,-3.0274 -0.8984,-0.79425 -2.2331,-1.1914 -4.0039,-1.1914 -1.6536,1e-5 -2.8776,0.29298 -3.6719,0.8789 -0.7812,0.57294 -1.3606,1.5951 -1.7382,3.0664 l -3.4375,-0.46875 c 0.3125,-1.4713 0.8268,-2.6562 1.5429,-3.5547 0.7162,-0.91144 1.7513,-1.6081 3.1055,-2.0898 1.3542,-0.49477 2.9232,-0.74217 4.707,-0.74219 1.7708,2.1e-5 3.2096,0.20835 4.3164,0.625 1.1068,0.41669 1.9206,0.94403 2.4414,1.582 0.5209,0.62502 0.8854,1.4193 1.0938,2.3828 0.1172,0.59898 0.1757,1.6797 0.1758,3.2422 v 4.6875 c -10e-5,3.2682 0.072,5.3386 0.2148,6.2109 0.1562,0.85938 0.4557,1.6862 0.8985,2.4805 h -3.6719 c -0.3646,-0.72917 -0.599,-1.582 -0.7031,-2.5586 m -0.293,-7.8516 c -1.2761,0.52084 -3.1901,0.96355 -5.7422,1.3281 -1.4453,0.20834 -2.4675,0.44271 -3.0664,0.70312 -0.599,0.26043 -1.0612,0.64454 -1.3867,1.1523 -0.3256,0.4948 -0.4883,1.0482 -0.4883,1.6602 0,0.93751 0.3515,1.7188 1.0547,2.3438 0.7161,0.625 1.7578,0.9375 3.125,0.9375 1.3541,0 2.5586,-0.29297 3.6133,-0.87891 1.0546,-0.59895 1.8294,-1.4128 2.3242,-2.4414 0.3776,-0.79427 0.5664,-1.9661 0.5664,-3.5156 v -1.2891"
             inkscape:connector-curvature="0" />
        </g>
      </g>
      <g
         transform="matrix(0.9214186,0,0,0.9214186,-680.88257,-371.54309)"
         id="g4">
        <g
           id="g6">
          <g
             transform="matrix(0.82358133,0,0,0.82358133,9.2651249,318.95749)"
             id="g10">
            <g
               id="g14">
              <path
                 style="fill:#ffffff"
                 d="m 234.7,267.98 c 9.479,-2.047 25.73,-10.439 33.107,-22.656 v 68.556 c -7.483,4.564 -15.79,7.421 -24.519,8.529 l -0.881,-5.732 c -9.988,-0.87 -19.213,4.944 -28.518,13.999 h -23.954 v -46.965 c 11.848,-14.682 25.735,-19.317 44.239,-19.241 l 0.526,3.51 z"
                 id="path16"
                 inkscape:connector-curvature="0" />
              <g
                 id="g18">
                <path
                   style="fill:#0069af"
                   d="m 189.94,330.68 0,-24.059 0.083,-0.524 c 12.194,-16.044 25.768,-25.43 46.739,-24.415 l 0.706,4.246 c 10.616,-1.624 23.504,-8.704 30.344,-16.785 v -0.578 24.468 c -8.761,7.048 -18.028,10.779 -27.445,11.324 l -0.815,-4.861 c -19.307,0.73 -37.316,14.464 -49.612,31.184 z"
                   id="path20"
                   inkscape:connector-curvature="0" />
                <path
                   style="fill:#ffe300"
                   d="m 234.7,267.98 c 9.479,-2.047 25.73,-10.439 33.107,-22.656 v 23.813 c -6.84,8.081 -19.728,15.161 -30.344,16.785 l -0.706,-4.246 c -21.019,-1.018 -34.606,8.412 -46.821,24.523 l -0.001,-22.489 c 11.848,-14.682 25.734,-19.316 44.239,-19.24 l 0.526,3.51 z"
                   id="path22"
                   inkscape:connector-curvature="0" />
                <path
                   style="fill:#e31c2e"
                   d="m 242.41,316.68 c -9.988,-0.87 -19.213,4.944 -28.518,13.999 h -23.954 v -0.002 c 12.296,-16.72 30.305,-30.454 49.612,-31.184 l 0.815,4.861 c 9.417,-0.545 18.683,-4.276 27.445,-11.324 v 20.853 c -7.483,4.564 -15.79,7.421 -24.519,8.529 l -0.881,-5.732 z"
                   id="path24"
                   inkscape:connector-curvature="0" />
              </g>
              <g
                 style="fill:#ffffff"
                 id="g26">
                <path
                   d="m 238.4,291 1.276,1.314 2.279,-1.369 -0.985,2.481 2.095,1.8 -2.704,-0.267 -0.985,2.481 -1,-6.43 z"
                   id="path28"
                   inkscape:connector-curvature="0" />
                <path
                   d="m 194.47,309.14 2.094,1.8 2.28,-1.369 -0.985,2.481 2.094,1.8 -2.703,-0.267 -0.985,2.481 -0.686,-2.646 -2.703,-0.266 2.28,-1.369 -0.686,-2.645 z"
                   id="path30"
                   inkscape:connector-curvature="0" />
                <path
                   d="m 201.58,301.8 2.094,1.8 2.28,-1.368 -0.985,2.48 2.095,1.8 -2.704,-0.266 -0.985,2.481 -0.686,-2.646 -2.703,-0.266 2.28,-1.369 -0.686,-2.646 z"
                   id="path32"
                   inkscape:connector-curvature="0" />
                <path
                   d="m 210.18,295.24 2.095,1.801 2.279,-1.369 -0.985,2.481 2.095,1.799 -2.704,-0.266 -0.984,2.481 -0.686,-2.646 -2.704,-0.266 2.28,-1.369 -0.686,-2.646 z"
                   id="path34"
                   inkscape:connector-curvature="0" />
                <path
                   d="m 219.97,289.86 2.095,1.8 2.28,-1.369 -0.986,2.481 2.095,1.8 -2.703,-0.266 -0.985,2.481 -0.686,-2.646 -2.703,-0.266 2.28,-1.369 -0.687,-2.646 z"
                   id="path36"
                   inkscape:connector-curvature="0" />
                <path
                   d="m 229.43,288.61 2.094,1.8 2.28,-1.369 -0.985,2.481 2.095,1.8 -2.704,-0.266 -0.985,2.481 -0.686,-2.646 -2.703,-0.266 2.28,-1.369 -0.686,-2.646 z"
                   id="path38"
                   inkscape:connector-curvature="0" />
                <path
                   d="m 247.84,287.67 2.095,1.801 2.279,-1.369 -0.985,2.481 2.095,1.799 -2.704,-0.266 -0.985,2.481 -0.685,-2.646 -2.704,-0.266 2.28,-1.369 -0.686,-2.646 z"
                   id="path40"
                   inkscape:connector-curvature="0" />
                <path
                   d="m 256.65,283.34 2.094,1.8 2.28,-1.369 -0.985,2.481 2.094,1.8 -2.703,-0.266 -0.985,2.481 -0.686,-2.646 -2.703,-0.266 2.28,-1.369 -0.686,-2.646 z"
                   id="path42"
                   inkscape:connector-curvature="0" />
              </g>
            </g>
          </g>
        </g>
      </g>
    </g>
    <path
       id="rect2961-3"
       d="m -519.39914,308.73535 181.61627,0 0,1.66215 -181.61627,0 0,-1.66215 z"
       style="fill:#4d4d4d;fill-rule:nonzero"
       inkscape:connector-curvature="0" />
    <path
       style="fill:#4d4d4d;fill-rule:nonzero"
       d="m -519.39914,334.62561 181.61627,0 0,1.66217 -181.61627,0 0,-1.66217 z"
       id="path3304"
       inkscape:connector-curvature="0" />
    <path
       style="fill:#f2f2f2;fill-opacity:1;fill-rule:nonzero;stroke:none"
       d="m -325.22446,232.39603 381.043834,0 0,218.75 -381.043834,0 0,-218.75 z"
       id="rect3320"
       inkscape:connector-curvature="0" />
    <flowRoot
       xml:space="preserve"
       id="flowRoot2832-5"
       style="font-size:26px;font-style:normal;font-weight:bold;fill:#4d4d4d;fill-opacity:1;stroke:none;font-family:arial;-inkscape-font-specification:arial"
       transform="matrix(0.42580159,0,0,0.46383659,-950.83342,299.29992)"><flowRegion
         id="flowRegion2834"><rect
           id="rect2836"
           width="458.57144"
           height="102.14286"
           x="1012.1429"
           y="79.714287"
           style="font-size:26px;fill:#4d4d4d;font-family:arial;-inkscape-font-specification:arial" /></flowRegion><flowPara
         id="flowPara2838"
         style="font-size:28px">FUNDACITE Sucre</flowPara></flowRoot>    <flowRoot
       transform="matrix(0.28920257,0,0,0.31503579,-812.22533,298.12236)"
       style="font-size:26px;font-style:normal;font-weight:bold;fill:#4d4d4d;fill-opacity:1;stroke:none;font-family:arial;-inkscape-font-specification:arial"
       id="flowRoot2848-5"
       xml:space="preserve"><flowRegion
         id="flowRegion2850"><rect
           style="font-size:26px;fill:#4d4d4d;font-family:arial;-inkscape-font-specification:arial"
           y="79.714287"
           x="1012.1429"
           height="88.224808"
           width="677.85358"
           id="rect2852" /></flowRegion><flowPara
         style="font-size:25px;font-weight:normal;-inkscape-font-specification:'13th Ghostwrite JRZ'"
         id="flowPara2854"><flowSpan
           id="flowSpan2856"
           style="fill:#666666">para la </flowSpan><flowSpan
           id="flowSpan2870"
           style="font-weight:bold;-inkscape-font-specification:'13th Ghostwrite JRZ Bold'">Educacin Universitaria, Ciencia y Tecnologa</flowSpan></flowPara></flowRoot>    <flowRoot
       transform="matrix(0.30683325,0,0,0.34481956,-830.29564,287.29412)"
       style="font-size:26px;font-style:normal;font-weight:bold;fill:#808080;fill-opacity:1;stroke:none;font-family:arial;-inkscape-font-specification:arial"
       id="flowRoot2840"
       xml:space="preserve"><flowRegion
         id="flowRegion2842"><rect
           style="font-size:26px;fill:#808080;font-family:arial;-inkscape-font-specification:arial"
           y="79.714287"
           x="1012.1429"
           height="102.14286"
           width="458.57144"
           id="rect2844" /></flowRegion><flowPara
         style="font-size:25px;font-weight:normal;fill:#666666;-inkscape-font-specification:'13th Ghostwrite JRZ'"
         id="flowPara2846">Ministerio del Poder Popular</flowPara></flowRoot>  </g>
</svg>
