<?xml version="1.0" encoding="UTF-8" standalone="no"?>
<svg
   xmlns:dc="http://purl.org/dc/elements/1.1/"
   xmlns:cc="http://creativecommons.org/ns#"
   xmlns:rdf="http://www.w3.org/1999/02/22-rdf-syntax-ns#"
   xmlns:svg="http://www.w3.org/2000/svg"
   xmlns="http://www.w3.org/2000/svg"
   xmlns:xlink="http://www.w3.org/1999/xlink"
   xmlns:sodipodi="http://sodipodi.sourceforge.net/DTD/sodipodi-0.dtd"
   xmlns:inkscape="http://www.inkscape.org/namespaces/inkscape"
   id="svg2"
   viewBox="0 0 590 320"
   height="100%"
   width="100%"
   version="1.1"
   inkscape:version="1.0.2-2 (e86c870879, 2021-01-15)"
   sodipodi:docname="logout-bg.svg"
   inkscape:export-filename="E:\WWW\siga_php8\module\logout\image\logout-bg.png"
   inkscape:export-xdpi="96"
   inkscape:export-ydpi="96">
  <sodipodi:namedview
     pagecolor="#ffffff"
     bordercolor="#666666"
     borderopacity="1"
     objecttolerance="10"
     gridtolerance="10"
     guidetolerance="10"
     inkscape:pageopacity="1"
     inkscape:pageshadow="2"
     inkscape:window-width="1920"
     inkscape:window-height="1027"
     id="namedview134"
     showgrid="false"
     inkscape:zoom="1.138976"
     inkscape:cx="272.346"
     inkscape:cy="157.24644"
     inkscape:window-x="-8"
     inkscape:window-y="-8"
     inkscape:window-maximized="1"
     inkscape:current-layer="layer1"
     inkscape:document-rotation="0" />
  <defs
     id="defs4">
    <inkscape:perspective
       sodipodi:type="inkscape:persp3d"
       inkscape:vp_x="0 : 55.66253 : 1"
       inkscape:vp_y="0 : 1000 : 0"
       inkscape:vp_z="1914 : 55.66253 : 1"
       inkscape:persp3d-origin="957 : 37.108353 : 1"
       id="perspective136" />
    <inkscape:perspective
       id="perspective3235"
       inkscape:persp3d-origin="0.5 : 0.33333333 : 1"
       inkscape:vp_z="1 : 0.5 : 1"
       inkscape:vp_y="0 : 1000 : 0"
       inkscape:vp_x="0 : 0.5 : 1"
       sodipodi:type="inkscape:persp3d" />
    <inkscape:perspective
       id="perspective3314"
       inkscape:persp3d-origin="0.5 : 0.33333333 : 1"
       inkscape:vp_z="1 : 0.5 : 1"
       inkscape:vp_y="0 : 1000 : 0"
       inkscape:vp_x="0 : 0.5 : 1"
       sodipodi:type="inkscape:persp3d" />
    <linearGradient
       gradientTransform="matrix(1.5319325,0,0,1.7070509,-51.521189,-710.0386)"
       gradientUnits="userSpaceOnUse"
       y2="1149.505"
       x2="331.42856"
       y1="152.36218"
       x1="331.42856"
       id="linearGradient2993"
       xlink:href="#linearGradient2987"
       inkscape:collect="always" />
    <linearGradient
       id="linearGradient2987">
      <stop
         id="stop2989"
         offset="0"
         style="stop-color:#333333;stop-opacity:1;" />
      <stop
         style="stop-color:#333333;stop-opacity:0.73780489;"
         offset="0.19627506"
         id="stop2995" />
      <stop
         id="stop2997"
         offset="0.61318052"
         style="stop-color:#333333;stop-opacity:0.76219511;" />
      <stop
         id="stop2991"
         offset="1"
         style="stop-color:#333333;stop-opacity:1;" />
    </linearGradient>
    <inkscape:perspective
       id="perspective3542"
       inkscape:persp3d-origin="526.18109 : 248.03149 : 1"
       inkscape:vp_z="1052.3622 : 372.04724 : 1"
       inkscape:vp_y="0 : 1000 : 0"
       inkscape:vp_x="0 : 372.04724 : 1"
       sodipodi:type="inkscape:persp3d" />
    <radialGradient
       r="6.2768998"
       cy="401.70999"
       cx="264.38"
       gradientTransform="matrix(1.7275371,0,0,3.8759313,-442.90814,-1204.7032)"
       gradientUnits="userSpaceOnUse"
       id="radialGradient9603-1"
       xlink:href="#radialGradient4568-7-9-6" />
    <radialGradient
       id="radialGradient4568-7-9-6"
       gradientUnits="userSpaceOnUse"
       cy="401.70999"
       cx="264.38"
       gradientTransform="matrix(0.65084323,0,0,0.91773523,216.86711,47.342464)"
       r="6.2768998">
      <stop
         stop-color="#c4c5c2"
         offset="0"
         id="stop6321-0-0" />
      <stop
         stop-color="#FFF"
         offset="1"
         id="stop6323-1-8" />
    </radialGradient>
    <filter
       style="color-interpolation-filters:sRGB"
       id="filter5212"
       x="-0.012683969"
       width="1.0253679"
       y="-0.22253597"
       height="1.4450719">
      <feGaussianBlur
         stdDeviation="0.63078151"
         id="feGaussianBlur5214" />
    </filter>
    <filter
       style="color-interpolation-filters:sRGB"
       id="filter5378"
       x="-0.093521506"
       width="1.187043"
       y="-0.16739374"
       height="1.3347875">
      <feGaussianBlur
         stdDeviation="0.59106964"
         id="feGaussianBlur5380" />
    </filter>
    <filter
       style="color-interpolation-filters:sRGB"
       id="filter5414"
       x="-0.0065411922"
       width="1.0130824"
       y="-0.072519804"
       height="1.1450396">
      <feGaussianBlur
         stdDeviation="0.70015986"
         id="feGaussianBlur5416" />
    </filter>
    <radialGradient
       xlink:href="#radialGradient4568-7-9-6-0"
       id="radialGradient9603-1-1"
       gradientUnits="userSpaceOnUse"
       gradientTransform="matrix(0.47353268,0,0,0.66771474,-125.18597,-368.8871)"
       cx="264.38"
       cy="401.70999"
       r="6.2768998" />
    <radialGradient
       r="6.2768998"
       gradientTransform="matrix(0.65084323,0,0,0.91773523,216.86711,47.342464)"
       cx="264.38"
       cy="401.70999"
       gradientUnits="userSpaceOnUse"
       id="radialGradient4568-7-9-6-0">
      <stop
         id="stop6321-0-0-0"
         offset="0"
         stop-color="#c4c5c2" />
      <stop
         id="stop6323-1-8-7"
         offset="1"
         stop-color="#FFF" />
    </radialGradient>
    <filter
       height="1.4450719"
       y="-0.22253597"
       width="1.0253679"
       x="-0.012683969"
       id="filter5212-8"
       style="color-interpolation-filters:sRGB">
      <feGaussianBlur
         id="feGaussianBlur5214-5"
         stdDeviation="0.63078151" />
    </filter>
    <filter
       height="1.3347875"
       y="-0.16739374"
       width="1.187043"
       x="-0.093521506"
       id="filter5378-2"
       style="color-interpolation-filters:sRGB">
      <feGaussianBlur
         id="feGaussianBlur5380-4"
         stdDeviation="0.59106964" />
    </filter>
    <filter
       height="1.1450396"
       y="-0.072519804"
       width="1.0130824"
       x="-0.0065411922"
       id="filter5414-0"
       style="color-interpolation-filters:sRGB">
      <feGaussianBlur
         id="feGaussianBlur5416-0"
         stdDeviation="0.70015986" />
    </filter>
    <radialGradient
       xlink:href="#radialGradient4568-7-9-6-8"
       id="radialGradient9603-1-9"
       gradientUnits="userSpaceOnUse"
       gradientTransform="matrix(0.47353268,0,0,0.66771474,-102.4657,-368.52646)"
       cx="264.38"
       cy="401.70999"
       r="6.2768998" />
    <radialGradient
       r="6.2768998"
       gradientTransform="matrix(0.65084323,0,0,0.91773523,216.86711,47.342464)"
       cx="264.38"
       cy="401.70999"
       gradientUnits="userSpaceOnUse"
       id="radialGradient4568-7-9-6-8">
      <stop
         id="stop6321-0-0-3"
         offset="0"
         stop-color="#c4c5c2" />
      <stop
         id="stop6323-1-8-8"
         offset="1"
         stop-color="#FFF" />
    </radialGradient>
  </defs>
  <metadata
     id="metadata7">
    <rdf:RDF>
      <cc:Work
         rdf:about="">
        <dc:format>image/svg+xml</dc:format>
        <dc:type
           rdf:resource="http://purl.org/dc/dcmitype/StillImage" />
        <dc:title />
      </cc:Work>
    </rdf:RDF>
  </metadata>
  <g
     id="layer1"
     transform="matrix(0.99595491,0,0,0.91428571,524.40642,-92.47637)">
    <g
       id="layer1-0"
       transform="matrix(6.9693666,0,0,7,-962.12168,101.14602)"
       style="stroke-width:0.567063">
      <rect
         style="opacity:1;fill:#fefefe;fill-opacity:1;stroke:none;stroke-width:0.445401;stroke-linecap:round;stroke-linejoin:round;stroke-miterlimit:4;stroke-dasharray:none;stroke-opacity:1"
         id="rect5420"
         width="85"
         height="50"
         x="62.5"
         y="5.6843419e-14" />
      <g
         id="g4594"
         transform="matrix(0.13820242,0,0,0.1996568,23.476686,-52.938156)"
         style="stroke-width:0.567063">
        <g
           transform="translate(-92.126584,-127.27422)"
           id="g5388"
           style="stroke-width:0.567063">
          <path
             id="path4607"
             d="m 374.49,392.43288 h 615.04 l 2e-5,235.8699 c 0,0 -52.41876,17.65602 -135.74376,-7.05017 -126.62315,-32.32413 -226.72995,-24.54852 -346.32641,-7.65044 -109.7829,15.5115 -132.96984,-23.34273 -132.96984,-23.34273 l 1e-5,-197.83944 z"
             style="fill:#f7f7f7;fill-opacity:1;fill-rule:nonzero;stroke-width:0.567063" />
          <path
             style="fill:#f0f0f0;fill-opacity:1;fill-rule:nonzero;stroke-width:0.567063"
             d="m 374.49,392.43 h 615.04 l 10e-6,173.4121 c 0,0 -111.3812,21.87865 -194.7062,2.69665 -114.59,-26.39 -164.15755,-35.42348 -286.16065,-31.4763 C 398.95974,540.6117 374.49,497.21176 374.49,497.21176 l 2e-5,-104.79176 z"
             id="path4596" />
          <path
             style="fill:#e9e9e9;fill-opacity:1;fill-rule:nonzero;stroke-width:0.567063"
             d="m 374.49,392.43 h 615.04 l 10e-6,104.79804 c 0,0 -78.63973,30.55267 -171.52973,14.01607 -79.87,-15.88587 -161.27755,-25.37704 -288.83396,-32.8592 -112.64653,-6.60759 -154.67631,-41.88929 -154.67631,-41.88929 l 1e-5,-44.07212 z"
             id="path4598" />
          <path
             id="path5420"
             d="m 374.49,392.43 h 615.04 l 2e-5,46.49263 c 0,0 -93.07952,37.21615 -185.96952,20.67955 -79.87,-15.88587 -118.43158,-23.56826 -245.98799,-31.05042 -112.64653,-6.60759 -183.0825,-31.40365 -183.0825,-31.40365 l 1e-5,-4.72461 z"
             style="fill:#e2e2e2;fill-opacity:1;fill-rule:nonzero;stroke-width:0.567063" />
        </g>
      </g>
    </g>
    <g
       transform="matrix(0.3782469,0,0,0.41203413,-701.94853,301.93694)"
       id="g1745"
       style="opacity:1;fill:#ffffff;stroke-width:3.95478">
      <g
         style="font-style:normal;font-weight:normal;font-family:Sans;fill:#ffffff;stroke-width:3.95478"
         transform="matrix(1.2198981,0,0,1.2198981,236.77641,535.89012)"
         font-weight="normal"
         font-style="normal"
         id="g1741">
        <g
           line-height="125%"
           font-size="40.78278732px"
           transform="matrix(0.96867486,0,1.0866425e-4,1.0323381,0,0)"
           style="font-size:40.7828px;line-height:125%;letter-spacing:0px;word-spacing:0px;fill:#ffffff;stroke-width:3.95478"
           id="g1735">
          <path
             style="fill:#ffffff;stroke-width:3.95478"
             d="m 54.754,10.198 h 14.995 c 3.2658,2.9e-5 5.7085,0.77665 7.3282,2.3299 1.6329,1.5533 2.4493,3.7637 2.4494,6.6312 -2.8e-5,2.9472 -0.8895,5.2505 -2.6684,6.91 -1.7657,1.6595 -4.4673,2.4892 -8.1048,2.4892 h -4.9385 v 10.833 h -9.0606 v -29.193 m 9.0606,12.446 h 2.2104 c 1.7391,1.7e-5 2.9605,-0.29868 3.6641,-0.89611 0.70359,-0.61066 1.0554,-1.3873 1.0554,-2.3299 -1.9e-5,-0.916 -0.30536,-1.6926 -0.91602,-2.3299 -0.6107,-0.63721 -1.759,-0.95582 -3.445,-0.95585 h -2.5688 v 6.5117"
             id="path1733" />
        </g>
        <g
           line-height="100%"
           font-size="40.31949997px"
           transform="matrix(0.95767081,0,0.00216816,1.0442001,0,0)"
           style="font-size:40.3195px;line-height:100%;letter-spacing:0px;word-spacing:0px;fill:#ffffff;stroke-width:3.95478"
           id="g1739">
          <path
             style="fill:#ffffff;stroke-width:3.95478"
             d="m 6.8785,10.082 h 13.25 c 2.6118,2.9e-5 4.7184,0.3544 6.3196,1.0631 1.6143,0.70877 2.9465,1.7259 3.9965,3.0515 1.05,1.3256 1.8112,2.8678 2.2837,4.6265 0.47246,1.7587 0.70871,3.6225 0.70874,5.5912 -3e-5,3.0843 -0.3544,5.4796 -1.0631,7.1858 -0.69564,1.6931 -1.6669,3.1172 -2.9137,4.2721 -1.2469,1.1419 -2.5856,1.9031 -4.0162,2.2837 -1.9556,0.52499 -3.7275,0.78749 -5.3156,0.78749 h -13.25 v -28.862 m 8.9183,6.5362 v 15.769 h 2.1853 c 1.8637,6e-6 3.1893,-0.20343 3.9768,-0.6103 0.78747,-0.41999 1.4043,-1.1419 1.8506,-2.1656 0.44622,-1.0369 0.66935,-2.7103 0.66937,-5.0202 -2e-5,-3.0581 -0.49876,-5.1515 -1.4962,-6.2802 -0.99751,-1.1287 -2.6512,-1.6931 -4.9612,-1.6931 h -2.2247"
             id="path1737" />
        </g>
      </g>
      <path
         style="fill:#ffffff;stroke-width:3.95478"
         d="m 267.97,574.97 12.722,-0.85488 c 0.20857,2.2164 0.71772,3.905 1.5274,5.066 1.3184,1.8786 3.2542,2.818 5.8073,2.8179 1.9049,10e-6 3.3822,-0.47493 4.4319,-1.4248 1.0699,-0.97097 1.6238,-2.0897 1.6618,-3.3562 0.036,-1.2032 -0.42275,-2.2797 -1.3762,-3.2296 -0.95353,-0.94985 -3.2048,-1.8469 -6.7537,-2.6913 -5.81,-1.4142 -9.927,-3.2928 -12.351,-5.6359 -2.4436,-2.343 -3.6111,-5.3298 -3.5024,-8.9604 0.0714,-2.3852 0.77697,-4.6332 2.1167,-6.7441 1.36,-2.1319 3.3443,-3.7994 5.953,-5.0026 2.629,-1.2242 6.1921,-1.8364 10.689,-1.8364 5.5185,5e-5 9.688,1.1082 12.509,3.3245 2.8408,2.1953 4.4641,5.6992 4.8699,10.512 l -12.602,0.79156 c -0.27133,-2.0897 -0.93282,-3.6095 -1.9845,-4.5594 -1.0321,-0.94983 -2.4908,-1.4248 -4.3761,-1.4248 -1.5515,4e-5 -2.7307,0.35888 -3.5378,1.0765 -0.80642,0.69661 -1.2248,1.5515 -1.2551,2.5646 -0.0221,0.73882 0.28199,1.4037 0.9124,1.9947 0.61009,0.61217 2.0856,1.1821 4.4264,1.7098 5.7922,1.351 9.9244,2.723 12.396,4.1161 2.4923,1.3721 4.2773,3.0818 5.3551,5.1293 1.0974,2.0475 1.6081,4.3378 1.5323,6.8707 -0.0891,2.9763 -0.93721,5.7203 -2.5442,8.2322 -1.6071,2.5119 -3.8049,4.4222 -6.5935,5.7309 -2.788,1.2876 -6.2735,1.9314 -10.457,1.9314 -7.3449,0 -12.386,-1.5198 -15.123,-4.5594 -2.737,-3.0396 -4.2219,-6.9024 -4.4547,-11.588"
         id="path1743" />
    </g>
  </g>
</svg>
